<svg width="60" height="57" viewBox="0 0 60 57" fill="none" xmlns="http://www.w3.org/2000/svg">
<path d="M14.0896 40.044C14.0896 42.2597 15.9828 44.0556 18.318 44.0556H42.6542C44.9899 44.0556 46.8828 42.2595 46.8828 40.044V16.9561C46.8828 14.7403 44.9896 12.9444 42.6544 12.9444H18.3181C15.9825 12.9444 14.0896 14.7405 14.0896 16.956V40.0439V40.044Z" fill="#563D7C"/>
<path d="M27.6883 26.706V22.3003H31.776C32.1654 22.3003 32.5408 22.331 32.9022 22.3926C33.2637 22.4541 33.5836 22.564 33.8617 22.7223C34.1397 22.8807 34.3622 23.1005 34.5291 23.3818C34.6959 23.6633 34.7794 24.0239 34.7794 24.4634C34.7794 25.255 34.5291 25.8266 34.0285 26.1783C33.528 26.5301 32.8884 26.706 32.1097 26.706H27.6883ZM23.3223 19.0816V37.9184H32.944C33.8339 37.9184 34.7006 37.8129 35.5442 37.6018C36.3877 37.3907 37.1385 37.0654 37.7966 36.6257C38.4547 36.186 38.9785 35.6187 39.3678 34.9241C39.7572 34.2293 39.9518 33.407 39.9518 32.4573C39.9518 31.2788 39.6505 30.272 39.048 29.4366C38.4455 28.6011 37.5324 28.0163 36.3088 27.6821C37.1987 27.2777 37.8708 26.7587 38.325 26.1256C38.7792 25.4924 39.0063 24.701 39.0063 23.7512C39.0063 22.8718 38.8533 22.1332 38.5474 21.5351C38.2415 20.9372 37.8105 20.4579 37.2543 20.0973C36.6982 19.7367 36.0308 19.4773 35.2521 19.3191C34.4735 19.1607 33.6114 19.0816 32.6659 19.0816H23.3223ZM27.6883 34.6997V29.5288H32.4434C33.3889 29.5288 34.149 29.7354 34.7238 30.1489C35.2985 30.5622 35.5859 31.2525 35.5859 32.2198C35.5859 32.7124 35.4978 33.1168 35.3216 33.4334C35.1455 33.75 34.9092 34.0007 34.6125 34.1853C34.3159 34.37 33.9729 34.5019 33.5836 34.5811C33.1942 34.6601 32.7864 34.6997 32.36 34.6997H27.6883Z" fill="white"/>
</svg>
