<svg width="60" height="57" viewBox="0 0 60 57" fill="none" xmlns="http://www.w3.org/2000/svg">
<path fill-rule="evenodd" clip-rule="evenodd" d="M20.2434 16.1083C18.3722 16.1083 16.9877 17.662 17.0497 19.347C17.1092 20.9658 17.0319 23.0624 16.4756 24.7722C15.9172 26.4868 14.9737 27.5733 13.4321 27.7128V29.2873C14.9737 29.427 15.9172 30.513 16.4755 32.2278C17.0319 33.9376 17.1091 36.0342 17.0496 37.653C16.9876 39.3377 18.3722 40.8917 20.2436 40.8917H39.4166C41.2877 40.8917 42.672 39.338 42.61 37.653C42.5505 36.0342 42.6278 33.9376 43.1841 32.2278C43.7424 30.513 44.6837 29.4266 46.2253 29.2873V27.7128C44.6838 27.573 43.7425 26.487 43.1841 24.7722C42.6277 23.0627 42.5505 20.9658 42.61 19.347C42.672 17.6623 41.2877 16.1083 39.4166 16.1083H20.2431H20.2434ZM35.6648 31.3641C35.6648 33.6843 33.8406 35.0914 30.8133 35.0914H25.6601C25.5127 35.0914 25.3713 35.0358 25.2671 34.9369C25.1628 34.838 25.1043 34.7039 25.1043 34.5641V22.436C25.1043 22.2962 25.1628 22.162 25.2671 22.0632C25.3713 21.9643 25.5127 21.9087 25.6601 21.9087H30.784C33.3082 21.9087 34.9649 23.2059 34.9649 25.1975C34.9649 26.5954 33.8504 27.8468 32.4306 28.066V28.1389C34.3634 28.3401 35.6648 29.61 35.6648 31.3641ZM30.2514 23.5803H27.3131V27.5178H29.7879C31.7011 27.5178 32.756 26.7869 32.756 25.4805C32.7558 24.2563 31.8488 23.5803 30.2514 23.5803ZM27.3131 29.0801V33.4193H30.3596C32.3515 33.4193 33.4066 32.661 33.4066 31.236C33.4066 29.8109 32.3219 29.0798 30.2315 29.0798H27.3131V29.0801Z" fill="#7952B3"/>
</svg>
