<svg width="60" height="57" viewBox="0 0 60 57" fill="none" xmlns="http://www.w3.org/2000/svg">
<path d="M43.9715 12.9444L41.3372 40.9412L29.4961 44.0556L17.6876 40.9456L15.0562 12.9444H43.9715Z" fill="#264DE4"/>
<path d="M39.082 39.1584L41.3331 15.2339H29.5138V41.6751L39.082 39.1584Z" fill="#2965F1"/>
<path d="M21.0887 25.6192L21.4132 29.0534H29.5138V25.6192H21.0887Z" fill="#EBEBEB"/>
<path d="M29.5139 18.6682H29.5014H20.4369L20.766 22.1024H29.5139V18.6682Z" fill="#EBEBEB"/>
<path d="M29.5138 38.1112V34.5381L29.498 34.5422L25.4665 33.5094L25.2088 30.7704H23.2498H21.575L22.0821 36.1627L29.4972 38.1156L29.5138 38.1112Z" fill="#EBEBEB"/>
<path d="M33.9588 29.0533L33.5387 33.5072L29.5013 34.541V38.1139L36.9223 36.1627L36.9768 35.5825L37.8274 26.5413L37.9157 25.6191L38.5692 18.6682H29.5013V22.1024H34.6021L34.2728 25.6191H29.5013V29.0533H33.9588Z" fill="white"/>
</svg>
