<svg width="60" height="57" viewBox="0 0 60 57" fill="none" xmlns="http://www.w3.org/2000/svg">
<path d="M24.7058 44.0556C27.7227 44.0556 30.1713 41.7326 30.1713 38.8704V33.6852H24.7058C21.6888 33.6852 19.2402 36.0082 19.2402 38.8704C19.2402 41.7326 21.6888 44.0556 24.7058 44.0556Z" fill="#0ACF83"/>
<path d="M19.2402 28.5C19.2402 25.6377 21.6888 23.3148 24.7058 23.3148H30.1713V33.6851H24.7058C21.6888 33.6851 19.2402 31.3622 19.2402 28.5Z" fill="#A259FF"/>
<path d="M19.2402 18.1296C19.2402 15.2674 21.6888 12.9444 24.7058 12.9444H30.1713V23.3148H24.7058C21.6888 23.3148 19.2402 20.9918 19.2402 18.1296Z" fill="#F24E1E"/>
<path d="M30.1713 12.9444H35.6368C38.6538 12.9444 41.1023 15.2674 41.1023 18.1296C41.1023 20.9918 38.6538 23.3148 35.6368 23.3148H30.1713V12.9444Z" fill="#FF7262"/>
<path d="M41.1023 28.5C41.1023 31.3622 38.6538 33.6851 35.6368 33.6851C32.6198 33.6851 30.1713 31.3622 30.1713 28.5C30.1713 25.6377 32.6198 23.3148 35.6368 23.3148C38.6538 23.3148 41.1023 25.6377 41.1023 28.5Z" fill="#1ABCFE"/>
</svg>
