<svg width="60" height="57" viewBox="0 0 60 57" fill="none" xmlns="http://www.w3.org/2000/svg">
<path d="M45.292 27.1139L30.9742 13.5312C30.1502 12.7489 28.8128 12.7489 27.9877 13.5312L25.0146 16.3518L28.7862 19.93C29.6626 19.649 30.6677 19.8375 31.3663 20.5003C32.0683 21.1674 32.2656 22.129 31.9622 22.9632L35.597 26.4117C36.4764 26.1243 37.4911 26.3102 38.1934 26.9776C39.1751 27.9085 39.1751 29.4173 38.1934 30.3488C37.2116 31.2804 35.6212 31.2804 34.6388 30.3488C33.9005 29.6476 33.7181 28.6189 34.0919 27.7559L30.7021 24.54L30.7017 33.0028C30.9475 33.1181 31.1719 33.2704 31.3663 33.4537C32.3479 34.3846 32.3479 35.8935 31.3663 36.8257C30.3844 37.7569 28.7933 37.7569 27.8129 36.8257C26.8313 35.8935 26.8313 34.3847 27.8129 33.4538C28.0481 33.2305 28.3277 33.0537 28.6354 32.9336V24.3919C28.3272 24.2725 28.0475 24.0956 27.8129 23.8716C27.0691 23.167 26.8903 22.1317 27.2714 21.2653L23.5535 17.7377L13.736 27.051C12.9111 27.834 12.9111 29.1029 13.736 29.8853L28.0541 43.4682C28.8784 44.2506 30.2155 44.2506 31.0408 43.4682L45.2919 29.9484C46.1166 29.1657 46.1166 27.8961 45.2919 27.1139" fill="#DE4C36"/>
</svg>
