<svg width="60" height="57" viewBox="0 0 60 57" fill="none" xmlns="http://www.w3.org/2000/svg">
<path d="M30.1714 13.3284C21.117 13.3284 13.7748 20.2928 13.7748 28.884C13.7748 35.757 18.4729 41.5879 24.9878 43.6448C25.8073 43.7888 26.1082 43.3074 26.1082 42.8965C26.1082 42.5256 26.0929 41.3001 26.0859 40.0003C21.5242 40.9413 20.5617 38.165 20.5617 38.165C19.8158 36.3669 18.7412 35.8889 18.7412 35.8889C17.2536 34.9234 18.8533 34.9432 18.8533 34.9432C20.4998 35.053 21.3668 36.5463 21.3668 36.5463C22.8292 38.9244 25.2026 38.2368 26.1383 37.8395C26.2854 36.8339 26.7104 36.1478 27.1793 35.7594C23.5374 35.3659 19.7088 34.0321 19.7088 28.0716C19.7088 26.3734 20.3494 24.9857 21.3983 23.8963C21.2281 23.5045 20.6669 21.9224 21.5572 19.7797C21.5572 19.7797 22.934 19.3616 26.0674 21.3742C27.3752 21.0294 28.778 20.8567 30.1714 20.8508C31.5649 20.8567 32.9686 21.0294 34.279 21.3742C37.4087 19.3616 38.7836 19.7797 38.7836 19.7797C39.6761 21.9224 39.1146 23.5045 38.9444 23.8963C39.9957 24.9857 40.6318 26.3733 40.6318 28.0716C40.6318 34.0462 36.7961 35.3619 33.145 35.7469C33.733 36.2297 34.2571 37.1764 34.2571 38.6276C34.2571 40.7089 34.238 42.3841 34.238 42.8965C34.238 43.3104 34.5331 43.7955 35.3644 43.6428C41.8757 41.5835 46.5679 35.7547 46.5679 28.884C46.5679 20.2928 39.2268 13.3284 30.1714 13.3284Z" fill="white"/>
<path d="M19.9158 35.4878C19.8798 35.565 19.7515 35.5882 19.6349 35.5352C19.5159 35.4845 19.449 35.3791 19.4876 35.3015C19.523 35.2219 19.6513 35.1997 19.77 35.2532C19.8892 35.3038 19.9571 35.4102 19.9158 35.4878ZM20.7224 36.1705C20.6442 36.2393 20.4913 36.2073 20.3875 36.0986C20.2803 35.9902 20.2602 35.8452 20.3396 35.7753C20.4202 35.7067 20.5685 35.7387 20.676 35.8473C20.7832 35.957 20.8041 36.1011 20.7223 36.1706L20.7224 36.1705ZM21.2758 37.044C21.1752 37.1103 21.0108 37.0482 20.9094 36.9098C20.8089 36.7716 20.8089 36.6057 20.9116 36.5392C21.0134 36.4727 21.1752 36.5325 21.2781 36.6697C21.3784 36.8104 21.3784 36.9763 21.2756 37.0441L21.2758 37.044ZM22.2114 38.0558C22.1215 38.1497 21.9302 38.1246 21.79 37.9962C21.6468 37.8708 21.6068 37.6928 21.6969 37.5988C21.7878 37.5046 21.9803 37.531 22.1215 37.6583C22.2639 37.7835 22.3074 37.9628 22.2115 38.0558H22.2114ZM23.4207 38.3974C23.3813 38.5191 23.1969 38.5745 23.0112 38.5228C22.8257 38.4695 22.7043 38.3267 22.7418 38.2036C22.7803 38.081 22.9655 38.0233 23.1526 38.0787C23.3378 38.1318 23.4594 38.2734 23.4209 38.3974H23.4207ZM24.7972 38.5422C24.8019 38.6705 24.6443 38.7769 24.4494 38.7792C24.2533 38.7833 24.0947 38.6794 24.0927 38.5533C24.0927 38.4237 24.2466 38.3183 24.4426 38.3153C24.6375 38.3116 24.7972 38.4147 24.7972 38.5422ZM26.1493 38.493C26.1727 38.6182 26.0372 38.7468 25.8436 38.7809C25.6533 38.8139 25.4771 38.7367 25.4528 38.6126C25.4292 38.4842 25.5673 38.3558 25.7572 38.3225C25.9511 38.2905 26.1246 38.3658 26.1493 38.493Z" fill="white"/>
</svg>
