<svg width="60" height="57" viewBox="0 0 60 57" fill="none" xmlns="http://www.w3.org/2000/svg">
<path d="M46.2253 12.9444H13.4321V44.0556H46.2253V12.9444Z" fill="#F7DF1E"/>
<path d="M35.4608 37.2501C36.1214 38.2733 36.9808 39.0254 38.5007 39.0254C39.7776 39.0254 40.5932 38.42 40.5932 37.5835C40.5932 36.581 39.7552 36.2259 38.3498 35.6427L37.5794 35.3291C35.3557 34.4304 33.8784 33.3044 33.8784 30.9242C33.8784 28.7316 35.6394 27.0625 38.3914 27.0625C40.3507 27.0625 41.7592 27.7094 42.7742 29.4032L40.3746 30.8649C39.8463 29.9662 39.2763 29.6121 38.3914 29.6121C37.4888 29.6121 36.9168 30.1553 36.9168 30.8649C36.9168 31.742 37.4893 32.097 38.8115 32.6402L39.5818 32.9533C42.2001 34.0185 43.6784 35.1044 43.6784 37.5459C43.6784 40.178 41.4989 41.62 38.572 41.62C35.7102 41.62 33.8613 40.3262 32.9566 38.6304L35.4608 37.2501ZM24.5751 37.5035C25.0592 38.3183 25.4995 39.0072 26.5583 39.0072C27.5707 39.0072 28.2094 38.6314 28.2094 37.1701V27.2294H31.2909V37.2096C31.2909 40.2368 29.4201 41.6146 26.6894 41.6146C24.2222 41.6146 22.7933 40.4032 22.0667 38.9442L24.5751 37.5035Z" fill="black"/>
</svg>
