<svg width="60" height="57" viewBox="0 0 60 57" fill="none" xmlns="http://www.w3.org/2000/svg">
<path d="M44.2955 36.9763C42.5113 36.9335 41.1284 37.1053 39.9687 37.5778C39.6341 37.7065 39.0987 37.7067 39.0541 38.1148C39.2326 38.2867 39.2549 38.5659 39.411 38.8021C39.6789 39.2316 40.147 39.8116 40.5708 40.1124C41.0391 40.456 41.5077 40.7996 41.9981 41.1003C42.8681 41.6158 43.8495 41.9164 44.697 42.432C45.1879 42.7325 45.6782 43.1194 46.169 43.4415C46.4143 43.6131 46.5704 43.8926 46.8828 43.9998V43.9355C46.7265 43.7421 46.6819 43.4629 46.5259 43.2481C46.3031 43.0333 46.0797 42.84 45.8567 42.6252C45.2099 41.7877 44.407 41.0573 43.5372 40.456C42.8236 39.9834 41.2622 39.3391 40.9723 38.5443C40.9723 38.5443 40.9499 38.5229 40.9277 38.5015C41.4183 38.4585 41.9981 38.2867 42.4667 38.1578C43.225 37.9643 43.9163 38.0074 44.697 37.8141C45.0538 37.7282 45.4107 37.6207 45.7675 37.5133V37.3201C45.3662 36.9335 45.0762 36.4181 44.6524 36.0529C43.5149 35.1076 42.2658 34.1842 40.9723 33.411C40.2808 32.9814 39.3886 32.7021 38.6526 32.3371C38.3852 32.208 37.9389 32.1437 37.7829 31.9289C37.3813 31.4565 37.1582 30.8336 36.8684 30.2751C36.2218 29.0937 35.5971 27.7836 35.0394 26.5379C34.6382 25.7002 34.3928 24.8624 33.9021 24.0894C31.6048 20.438 29.1068 18.2257 25.2706 16.0562C24.4453 15.6052 23.464 15.4119 22.4157 15.1758C21.8583 15.1541 21.3006 15.1113 20.743 15.0897C20.3861 14.9393 20.0292 14.5313 19.717 14.338C18.4459 13.5647 15.167 11.8895 14.2303 14.1018C13.628 15.4978 15.1226 16.8724 15.6353 17.5814C16.0148 18.0753 16.5053 18.6337 16.7729 19.1922C16.9291 19.5571 16.9736 19.944 17.1297 20.3306C17.4867 21.2754 17.8211 22.328 18.2896 23.2088C18.535 23.6597 18.8025 24.1322 19.1148 24.5403C19.2933 24.7765 19.6054 24.884 19.6725 25.2706C19.3603 25.7002 19.3379 26.3446 19.1593 26.8815C18.3564 29.3086 18.6688 32.3156 19.8062 34.0982C20.1629 34.635 21.0106 35.8167 22.1481 35.3655C23.1518 34.979 22.9288 33.7547 23.2185 32.6807C23.2857 32.4227 23.2411 32.2511 23.3748 32.0793V32.1224C23.687 32.7236 23.9992 33.3037 24.2892 33.905C24.9807 34.9574 26.1849 36.0529 27.1886 36.7832C27.7241 37.1696 28.1477 37.8356 28.8169 38.0718V38.0073H28.7722C28.6383 37.814 28.4376 37.7282 28.2593 37.5777C27.8579 37.1913 27.4116 36.7187 27.0995 36.2891C26.1629 35.0861 25.3374 33.7545 24.6015 32.3799C24.2447 31.7142 23.9323 30.9839 23.6424 30.3181C23.5085 30.0601 23.5085 29.6737 23.2855 29.5449C22.9509 30.0174 22.4603 30.4255 22.215 31.0054C21.7914 31.9289 21.7467 33.0673 21.5905 34.2485C21.5013 34.2702 21.5458 34.2485 21.5012 34.2917C20.7876 34.1196 20.5423 33.411 20.2745 32.8095C19.6053 31.2846 19.4938 28.836 20.0739 27.0748C20.23 26.6237 20.8992 25.2062 20.6315 24.7766C20.4977 24.3685 20.0514 24.1322 19.8062 23.8101C19.5163 23.402 19.2039 22.8867 19.0033 22.4354C18.4679 21.2326 18.2003 19.9009 17.6204 18.6981C17.3528 18.1396 16.8846 17.5599 16.5053 17.0443C16.0816 16.4645 15.6132 16.0562 15.2786 15.369C15.1672 15.1328 15.0109 14.7461 15.1893 14.4884C15.234 14.3165 15.3231 14.2522 15.5016 14.2092C15.7916 13.9728 16.6169 14.2736 16.9067 14.4024C17.732 14.7244 18.4233 15.0254 19.1148 15.4764C19.427 15.6912 19.7616 16.0993 20.1629 16.2067H20.6314C21.3452 16.357 22.1479 16.2497 22.8171 16.4429C23.9993 16.8079 25.0698 17.345 26.0289 17.9249C28.9508 19.7076 31.3593 22.2421 32.9876 25.2706C33.2553 25.7644 33.3667 26.2157 33.6121 26.731C34.0806 27.7836 34.6605 28.8575 35.1286 29.8885C35.5971 30.8978 36.0431 31.9289 36.7122 32.7667C37.0468 33.2175 38.3849 33.4539 38.9872 33.6902C39.4333 33.8834 40.1248 34.0554 40.5262 34.2916C41.2845 34.7424 42.0427 35.2582 42.7565 35.752C43.1134 36.0098 44.2285 36.5468 44.2955 36.9763Z" fill="white"/>
<path d="M21.5456 18.3114C21.1666 18.3114 20.899 18.3546 20.6313 18.4189V18.4618H20.676C20.8545 18.8055 21.1666 19.0418 21.3895 19.3424C21.5681 19.686 21.7241 20.0298 21.9027 20.3735C21.9248 20.3519 21.9471 20.3306 21.9471 20.3306C22.2596 20.1156 22.4156 19.7721 22.4156 19.2565C22.2817 19.1063 22.2594 18.9559 22.1479 18.8055C22.0142 18.5906 21.7241 18.4833 21.5456 18.3114Z" fill="white"/>
</svg>
