<svg width="60" height="57" viewBox="0 0 60 57" fill="none" xmlns="http://www.w3.org/2000/svg">
<path d="M29.8286 31.2428C31.4253 31.2428 32.7197 30.0148 32.7197 28.5C32.7197 26.9852 31.4253 25.7572 29.8286 25.7572C28.2319 25.7572 26.9375 26.9852 26.9375 28.5C26.9375 30.0148 28.2319 31.2428 29.8286 31.2428Z" fill="#61DAFB"/>
<path d="M29.8286 34.1195C38.3964 34.1195 45.342 31.6035 45.342 28.5C45.342 25.3965 38.3964 22.8806 29.8286 22.8806C21.2609 22.8806 14.3153 25.3965 14.3153 28.5C14.3153 31.6035 21.2609 34.1195 29.8286 34.1195Z" stroke="#61DAFB"/>
<path d="M24.6989 31.3097C28.9828 38.349 34.7522 42.7976 37.5853 41.2458C40.4183 39.6941 39.2422 32.7296 34.9583 25.6903C30.6744 18.6509 24.905 14.2024 22.072 15.7542C19.2389 17.3059 20.415 24.2704 24.6989 31.3097Z" stroke="#61DAFB"/>
<path d="M24.6989 25.6903C20.415 32.7296 19.2389 39.694 22.0719 41.2458C24.905 42.7976 30.6744 38.349 34.9583 31.3097C39.2422 24.2704 40.4183 17.3059 37.5853 15.7542C34.7522 14.2024 28.9828 18.6509 24.6989 25.6903Z" stroke="#61DAFB"/>
</svg>
