<svg width="60" height="57" viewBox="0 0 60 57" fill="none" xmlns="http://www.w3.org/2000/svg">
<path d="M17.5018 31.5289C19.2637 31.5289 20.6919 30.1739 20.6919 28.5024C20.6919 26.8309 19.2637 25.4758 17.5018 25.4758C15.7399 25.4758 14.3116 26.8309 14.3116 28.5024C14.3116 30.1739 15.7399 31.5289 17.5018 31.5289Z" fill="#FF6309"/>
<path d="M40.3772 44.0556C42.1392 44.0556 43.5676 42.7004 43.5676 41.0288C43.5676 39.3572 42.1392 38.0021 40.3772 38.0021C38.6153 38.0021 37.1869 39.3572 37.1869 41.0288C37.1869 42.7004 38.6153 44.0556 40.3772 44.0556Z" fill="#FFB515"/>
<path d="M40.3745 18.9975C42.1363 18.9975 43.5646 17.6425 43.5646 15.971C43.5646 14.2995 42.1363 12.9444 40.3745 12.9444C38.6126 12.9444 37.1843 14.2995 37.1843 15.971C37.1843 17.6425 38.6126 18.9975 40.3745 18.9975Z" fill="#C90016"/>
<path d="M32.7515 21.0133C36.7239 21.0133 40.0197 23.8116 40.5655 27.4395H46.031C45.7824 24.5888 44.5371 21.9317 42.4541 19.8363C41.1201 20.4808 39.4797 20.4931 38.0864 19.7302C36.692 18.9662 35.883 17.6115 35.8054 16.1918C34.8041 15.9705 33.7792 15.859 32.7511 15.8594C30.7567 15.8594 28.8295 16.2724 27.0768 17.0555L29.8136 21.5519C30.7475 21.1954 31.7449 21.0125 32.7515 21.0133Z" fill="#FF6309"/>
<path d="M24.858 28.5024C24.858 26.1164 26.0401 23.9878 27.8776 22.6155L25.1418 18.1197C24.4938 18.5493 23.8867 19.032 23.3276 19.5623C21.7444 21.0644 20.609 22.8779 19.9843 24.8572C21.2431 25.6307 22.0766 26.9735 22.0766 28.5024C22.0766 30.0308 21.2431 31.3739 19.9843 32.1472C20.609 34.1264 21.7444 35.9397 23.3276 37.4422C23.8863 37.9722 24.4928 38.4548 25.1403 38.8844L27.8765 34.388C26.0395 33.0159 24.858 30.8876 24.858 28.5024Z" fill="#FFB515"/>
<path d="M40.5658 29.5618C40.0215 33.1909 36.7251 35.991 32.7516 35.991C31.7133 35.991 30.7211 35.7993 29.8126 35.4519L27.0759 39.9485C28.8282 40.7321 30.7565 41.1452 32.7513 41.1452C33.7935 41.1452 34.8176 41.0312 35.8079 40.8125C35.8841 39.3909 36.6931 38.0338 38.0886 37.2694C39.4824 36.506 41.1234 36.518 42.4574 37.1638C44.5385 35.0681 45.783 32.4114 46.0305 29.5618H40.5658Z" fill="#C90016"/>
</svg>
