<svg width="34" height="34" viewBox="0 0 34 34" fill="none" xmlns="http://www.w3.org/2000/svg">
<path d="M32.1622 33.7203H1.29547C0.584086 33.7203 0 33.1466 0 32.4477V2.13279C0 1.43395 0.584086 0.860168 1.29547 0.860168H32.1622C32.8735 0.860168 33.4576 1.43395 33.4576 2.13279V32.4551C33.4501 33.1539 32.8735 33.7203 32.1622 33.7203Z" fill="#4D4D4E"/>
<path d="M7.71289 10.7837L25.2205 5.32543C25.2205 5.32543 26.4635 4.68544 26.164 5.86979L26.2089 11.1295C26.2089 11.1295 26.4261 11.9019 25.3478 12.0931L18.2339 14.2779L7.71289 10.7837Z" fill="#F89820"/>
<path d="M7.71288 10.7835C7.71288 10.7835 7.02396 10.9453 7.22614 12.1003L7.1887 17.1687C7.1887 17.1687 7.12879 17.8087 8.36436 18.0662L25.7147 23.5539C25.7147 23.5539 26.2988 23.7819 26.2314 23.0757L26.2389 17.4262C26.2389 17.4262 26.4036 16.845 25.3253 16.4625L18.2339 14.2777L7.71288 10.7835Z" fill="#F89820"/>
<path d="M15.3585 20.273L7.97502 22.4872C7.97502 22.4872 7.08391 22.5167 7.18875 24.1571C7.29359 25.7975 7.18126 29.1005 7.18126 29.1005C7.18126 29.1005 7.25614 29.711 8.10981 29.3579L25.6174 23.8702C25.6174 23.8702 26.2389 23.7157 25.7148 23.5465C25.1906 23.3847 15.3585 20.273 15.3585 20.273Z" fill="url(#paint0_linear_79_12066)"/>
<defs>
<linearGradient id="paint0_linear_79_12066" x1="8.20551" y1="26.0946" x2="25.8472" y2="19.8811" gradientUnits="userSpaceOnUse">
<stop offset="0.233" stop-color="#F89822"/>
<stop offset="1" stop-color="#C27818"/>
</linearGradient>
</defs>
</svg>
