<svg width="34" height="33" viewBox="0 0 34 33" fill="none" xmlns="http://www.w3.org/2000/svg">
<path d="M0.318321 11.4586C0.318321 11.4586 -0.496581 10.8754 0.481302 10.0968L2.75963 8.07426C2.75963 8.07426 3.41156 7.39335 4.10083 7.98662L25.1253 23.7892V31.3669C25.1253 31.3669 25.1151 32.5568 23.577 32.4253L0.318321 11.4586Z" fill="#2489CA"/>
<path d="M5.7374 16.3433L0.31829 21.2344C0.31829 21.2344 -0.238561 21.6456 0.31829 22.3805L2.8343 24.6524C2.8343 24.6524 3.4319 25.2895 4.31471 24.5648L10.0598 20.24L5.7374 16.3433Z" fill="#1070B3"/>
<path d="M15.2514 16.3836L25.1899 8.84971L25.1254 1.31247C25.1254 1.31247 24.7009 -0.332508 23.285 0.52369L10.0598 12.4734L15.2514 16.3836Z" fill="#0877B9"/>
<path d="M23.577 32.4356C24.1543 33.0221 24.8537 32.83 24.8537 32.83L32.5987 29.0412C33.5902 28.3704 33.4509 27.5378 33.4509 27.5378V4.91257C33.4509 3.91817 32.4255 3.57434 32.4255 3.57434L25.7128 0.361916C24.2459 -0.538103 23.285 0.523717 23.285 0.523717C23.285 0.523717 24.521 -0.359448 25.1254 1.3125V31.2288C25.1254 31.4345 25.0812 31.6367 24.9929 31.8187C24.8164 32.1727 24.4327 32.503 23.5125 32.3648L23.577 32.4356Z" fill="#3C99D4"/>
</svg>
