<svg width="55" height="55" viewBox="0 0 55 55" fill="none" xmlns="http://www.w3.org/2000/svg">
<path d="M20.8331 24.9999C20.8331 25.3759 20.8737 25.6807 20.9448 25.9043C21.0261 26.1279 21.1278 26.3718 21.27 26.636C21.3209 26.7173 21.3412 26.7986 21.3412 26.8698C21.3412 26.9714 21.2802 27.073 21.1481 27.1746L20.5079 27.6015C20.4164 27.6624 20.3249 27.6929 20.2436 27.6929C20.142 27.6929 20.0404 27.6421 19.9388 27.5506C19.7965 27.3982 19.6745 27.2356 19.5729 27.073C19.4713 26.9002 19.3697 26.7072 19.2579 26.4734C18.4652 27.4084 17.4693 27.8758 16.2701 27.8758C15.4165 27.8758 14.7356 27.6319 14.2376 27.1441C13.7397 26.6563 13.4856 26.0059 13.4856 25.1929C13.4856 24.3291 13.7905 23.6279 14.4104 23.0995C15.0303 22.571 15.8534 22.3068 16.9002 22.3068C17.2457 22.3068 17.6014 22.3373 17.9774 22.3881C18.3534 22.4389 18.7396 22.5202 19.1461 22.6117V21.8698C19.1461 21.0975 18.9835 20.5589 18.6685 20.2438C18.3433 19.9288 17.7945 19.7764 17.012 19.7764C16.6563 19.7764 16.2904 19.817 15.9144 19.9085C15.5384 19.9999 15.1726 20.1117 14.8169 20.254C14.6543 20.3251 14.5323 20.3658 14.4612 20.3861C14.3901 20.4064 14.3392 20.4166 14.2986 20.4166C14.1563 20.4166 14.0852 20.315 14.0852 20.1016V19.6036C14.0852 19.441 14.1055 19.319 14.1563 19.2479C14.2071 19.1768 14.2986 19.1056 14.4409 19.0345C14.7966 18.8516 15.2234 18.6991 15.7213 18.5772C16.2193 18.4451 16.7477 18.3841 17.3067 18.3841C18.516 18.3841 19.4002 18.6585 19.9692 19.2073C20.5282 19.756 20.8127 20.5893 20.8127 21.7072V24.9999H20.8331ZM16.7071 26.5446C17.0425 26.5446 17.388 26.4836 17.7538 26.3616C18.1197 26.2397 18.4449 26.0161 18.7193 25.7112C18.8819 25.5181 19.0038 25.3047 19.0648 25.0608C19.1258 24.8169 19.1664 24.5222 19.1664 24.1767V23.7499C18.8717 23.6787 18.5567 23.6178 18.2315 23.5771C17.9063 23.5365 17.5912 23.5161 17.2762 23.5161C16.5953 23.5161 16.0973 23.6483 15.762 23.9226C15.4266 24.197 15.264 24.5832 15.264 25.0913C15.264 25.569 15.386 25.9246 15.64 26.1685C15.8839 26.4226 16.2396 26.5446 16.7071 26.5446ZM24.8676 27.6421C24.6846 27.6421 24.5627 27.6116 24.4814 27.5405C24.4001 27.4795 24.3289 27.3372 24.268 27.1441L21.8798 19.2886C21.8188 19.0853 21.7883 18.9532 21.7883 18.8821C21.7883 18.7195 21.8696 18.628 22.0322 18.628H23.0282C23.2212 18.628 23.3533 18.6585 23.4245 18.7296C23.5058 18.7906 23.5668 18.9329 23.6277 19.126L25.335 25.8535L26.9204 19.126C26.9712 18.9227 27.0322 18.7906 27.1135 18.7296C27.1948 18.6686 27.337 18.628 27.52 18.628H28.333C28.526 18.628 28.6582 18.6585 28.7395 18.7296C28.8208 18.7906 28.8919 18.9329 28.9325 19.126L30.5382 25.9348L32.2963 19.126C32.3573 18.9227 32.4284 18.7906 32.4996 18.7296C32.5809 18.6686 32.713 18.628 32.8959 18.628H33.841C34.0036 18.628 34.0951 18.7093 34.0951 18.8821C34.0951 18.9329 34.0849 18.9837 34.0747 19.0447C34.0646 19.1056 34.0443 19.1869 34.0036 19.2987L31.5545 27.1543C31.4935 27.3576 31.4223 27.4897 31.341 27.5506C31.2597 27.6116 31.1276 27.6523 30.9549 27.6523H30.0809C29.8878 27.6523 29.7557 27.6218 29.6744 27.5506C29.5931 27.4795 29.522 27.3474 29.4813 27.1441L27.9061 20.5893L26.3411 27.134C26.2903 27.3372 26.2293 27.4693 26.148 27.5405C26.0667 27.6116 25.9245 27.6421 25.7415 27.6421H24.8676ZM37.9263 27.9165C37.3979 27.9165 36.8694 27.8555 36.3613 27.7336C35.8532 27.6116 35.4568 27.4795 35.1926 27.3271C35.03 27.2356 34.9182 27.134 34.8776 27.0425C34.8369 26.9511 34.8166 26.8494 34.8166 26.758V26.2397C34.8166 26.0263 34.8979 25.9246 35.0503 25.9246C35.1113 25.9246 35.1723 25.9348 35.2333 25.9551C35.2942 25.9755 35.3857 26.0161 35.4873 26.0568C35.8329 26.2092 36.2089 26.3311 36.6052 26.4124C37.0117 26.4937 37.408 26.5344 37.8145 26.5344C38.4548 26.5344 38.9527 26.4226 39.2983 26.199C39.6438 25.9755 39.8267 25.6503 39.8267 25.2336C39.8267 24.949 39.7352 24.7153 39.5523 24.5222C39.3694 24.3291 39.0239 24.1564 38.5259 23.9938L37.0524 23.5365C36.3105 23.3027 35.7617 22.9572 35.4264 22.4999C35.091 22.0527 34.9182 21.5548 34.9182 21.0263C34.9182 20.5995 35.0097 20.2235 35.1926 19.8983C35.3755 19.5731 35.6194 19.2886 35.9243 19.065C36.2292 18.8312 36.5747 18.6585 36.9812 18.5365C37.3877 18.4146 37.8145 18.3638 38.2617 18.3638C38.4853 18.3638 38.719 18.3739 38.9426 18.4044C39.1763 18.4349 39.3897 18.4756 39.6031 18.5162C39.8064 18.567 39.9995 18.6178 40.1824 18.6788C40.3653 18.7398 40.5076 18.8008 40.6092 18.8617C40.7515 18.943 40.8531 19.0243 40.9141 19.1158C40.9751 19.1971 41.0056 19.3089 41.0056 19.4512V19.9288C41.0056 20.1422 40.9243 20.254 40.7718 20.254C40.6905 20.254 40.5584 20.2133 40.3856 20.132C39.8064 19.8678 39.156 19.7357 38.4344 19.7357C37.8552 19.7357 37.3979 19.8272 37.0828 20.0203C36.7678 20.2133 36.6052 20.508 36.6052 20.9247C36.6052 21.2093 36.7068 21.4532 36.9101 21.6462C37.1133 21.8393 37.4893 22.0324 38.028 22.2052L39.471 22.6625C40.2027 22.8962 40.7312 23.2214 41.0462 23.6381C41.3612 24.0548 41.5137 24.5324 41.5137 25.0608C41.5137 25.4978 41.4222 25.8942 41.2494 26.2397C41.0665 26.5852 40.8226 26.8901 40.5076 27.134C40.1926 27.388 39.8165 27.571 39.3796 27.7031C38.9222 27.8454 38.4446 27.9165 37.9263 27.9165Z" fill="white"/>
<path fill-rule="evenodd" clip-rule="evenodd" d="M39.847 32.8555C36.5035 35.3249 31.6459 36.6359 27.4691 36.6359C21.6155 36.6359 16.3412 34.4713 12.3575 30.8738C12.0425 30.5892 12.327 30.2031 12.7031 30.4266C17.0119 32.9266 22.3269 34.4408 27.8248 34.4408C31.5341 34.4408 35.6092 33.6685 39.3592 32.0831C39.9181 31.8291 40.3957 32.449 39.847 32.8555Z" fill="#FF9900"/>
<path fill-rule="evenodd" clip-rule="evenodd" d="M41.2393 31.2701C40.8125 30.7213 38.4141 31.0059 37.3268 31.138C37.0016 31.1787 36.9508 30.8941 37.2455 30.6807C39.156 29.3393 42.2962 29.7254 42.662 30.1726C43.0279 30.6299 42.5604 33.7701 40.7718 35.2741C40.4974 35.5079 40.2332 35.3859 40.3552 35.081C40.7617 34.075 41.6661 31.8087 41.2393 31.2701Z" fill="#FF9900"/>
</svg>
