<svg width="56" height="55" viewBox="0 0 56 55" fill="none" xmlns="http://www.w3.org/2000/svg">
<path d="M41.7792 21.2099C41.779 20.6975 41.6674 20.2447 41.4418 19.8561C41.2201 19.474 40.8882 19.1537 40.443 18.9005C36.7678 16.8192 33.089 14.7443 29.4151 12.6609C28.4246 12.0993 27.4642 12.1198 26.4811 12.6894C25.0182 13.5367 17.6944 17.6578 15.5119 18.8993C14.6132 19.4103 14.1758 20.1924 14.1756 21.2089C14.1742 25.3945 14.1756 29.58 14.1742 33.7657C14.1744 34.2668 14.2812 34.7108 14.4969 35.0935C14.7187 35.4872 15.0553 35.8163 15.5108 36.0752C17.6933 37.3167 25.0181 41.4375 26.4806 42.285C27.4642 42.855 28.4246 42.8754 29.4154 42.3136C33.0895 40.23 36.7684 38.1552 40.4441 36.074C40.8996 35.8151 41.2362 35.4858 41.458 35.0925C41.6733 34.7097 41.7804 34.2657 41.7806 33.7645C41.7806 33.7645 41.7806 25.3955 41.7792 21.2099Z" fill="#5C8DBC"/>
<path d="M28.0197 27.4465L14.4969 35.0936C14.7187 35.4873 15.0553 35.8163 15.5108 36.0753C17.6933 37.3168 25.0182 41.4376 26.4807 42.2851C27.4642 42.8551 28.4246 42.8754 29.4154 42.3136C33.0895 40.2301 36.7685 38.1553 40.4442 36.074C40.8997 35.8152 41.2362 35.4859 41.458 35.0925L28.0197 27.4465Z" fill="#1A4674"/>
<path d="M24.0144 29.7116C24.8013 31.0608 26.2805 31.9708 27.9774 31.9708C29.6848 31.9708 31.1725 31.0493 31.9554 29.6857L28.0197 27.4465L24.0144 29.7116Z" fill="#1A4674"/>
<path d="M41.7792 21.21C41.779 20.6976 41.6674 20.2448 41.4418 19.8562L28.0197 27.4466L41.458 35.0926C41.6734 34.7098 41.7804 34.2659 41.7806 33.7646C41.7806 33.7646 41.7806 25.3957 41.7792 21.21Z" fill="#1B598E"/>
<path d="M41.0402 27.993H39.9901V29.0246H38.9398V27.993H37.8898V26.9618H38.9398V25.9304H39.9901V26.9618H41.0402V27.993ZM37.2084 27.993H36.1584V29.0246H35.1083V27.993H34.0582V26.9618H35.1083V25.9304H36.1584V26.9618H37.2084V27.993Z" fill="white"/>
<path d="M31.9553 29.6857C31.1724 31.0493 29.6848 31.9708 27.9774 31.9708C26.2805 31.9708 24.8012 31.0608 24.0143 29.7117C23.6191 29.0347 23.4115 28.2677 23.4123 27.4873C23.4123 25.0111 25.4562 23.0038 27.9774 23.0038C29.6634 23.0038 31.1348 23.9024 31.9256 25.2378L35.9158 22.9812C34.3298 20.2924 31.3688 18.4834 27.9774 18.4834C22.9141 18.4834 18.8097 22.5146 18.8097 27.4873C18.8097 29.1186 19.2516 30.6485 20.0239 31.9681C21.6058 34.6711 24.5753 36.4912 27.9774 36.4912C31.3858 36.4912 34.3598 34.6638 35.9395 31.9528L31.9553 29.6857Z" fill="white"/>
</svg>
