<svg width="50" height="55" viewBox="0 0 50 55" fill="none" xmlns="http://www.w3.org/2000/svg">
<path d="M37.2347 21.2674C37.2345 20.7587 37.1356 20.3092 36.9356 19.9235C36.7391 19.544 36.4449 19.226 36.0502 18.9746C32.7923 16.9083 29.5312 14.8482 26.2744 12.7797C25.3964 12.2221 24.5451 12.2426 23.6736 12.8082C22.3768 13.6493 15.8845 17.7408 13.9499 18.9735C13.1532 19.4809 12.7655 20.2574 12.7653 21.2665C12.764 25.4221 12.7653 29.5777 12.764 33.7333C12.764 34.2308 12.8589 34.6717 13.0501 35.0516C13.2467 35.4425 13.5451 35.7692 13.9488 36.0263C15.8836 37.2589 22.3767 41.3501 23.6732 42.1916C24.5451 42.7575 25.3964 42.7777 26.2747 42.22C29.5316 40.1514 32.7929 38.0914 36.0512 36.025C36.455 35.768 36.7534 35.4411 36.9499 35.0506C37.1409 34.6706 37.2359 34.2298 37.2359 33.7321C37.2359 33.7321 37.2359 25.4231 37.2347 21.2674Z" fill="#A179DC"/>
<path d="M25.0373 27.4595L13.05 35.0517C13.2466 35.4426 13.545 35.7693 13.9488 36.0264C15.8835 37.259 22.3766 41.3502 23.6731 42.1917C24.545 42.7576 25.3963 42.7778 26.2746 42.2201C29.5315 40.1515 32.7928 38.0915 36.0511 36.0251C36.4549 35.7681 36.7533 35.4412 36.9498 35.0507L25.0373 27.4595Z" fill="#280068"/>
<path d="M37.2349 21.2675C37.2347 20.7588 37.1358 20.3093 36.9358 19.9236L25.0376 27.4596L36.9501 35.0507C37.141 34.6707 37.2359 34.2299 37.2361 33.7322C37.2361 33.7322 37.2361 25.4232 37.2349 21.2675Z" fill="#390091"/>
<path d="M32.0953 24.6211V26.0402H33.3854V24.6211H34.0305V26.0402H35.3206V26.7498H34.0305V28.1688H35.3206V28.8784H34.0305V30.2976H33.3854V28.8784H32.0953V30.2976H31.4502V28.8784H30.1602V28.1688H31.4502V26.7498H30.1602V26.0402H31.4502V24.6211H32.0953ZM33.3854 26.7497H32.0953V28.1688H33.3854V26.7497Z" fill="white"/>
<path d="M25.0638 17.494C28.4289 17.494 31.3668 19.5042 32.9404 22.4923L32.9251 22.4635L28.9658 24.9711C28.1859 23.5184 26.7559 22.5379 25.1155 22.5177L25.0637 22.5174C22.5623 22.5174 20.5343 24.7481 20.5343 27.4998C20.5335 28.367 20.7395 29.2194 21.1317 29.9717C21.9124 31.471 23.3802 32.4823 25.0638 32.4823C26.7579 32.4823 28.234 31.4582 29.0107 29.9429L28.9919 29.9792L32.9451 32.4984C31.3887 35.4612 28.491 37.4652 25.1651 37.5051L25.0638 37.5057C21.6882 37.5057 18.742 35.4831 17.1723 32.4792C16.406 31.0128 15.9675 29.3127 15.9675 27.4998C15.9675 21.9738 20.04 17.4939 25.0637 17.4939L25.0638 17.494Z" fill="white"/>
</svg>
