<svg width="53" height="55" viewBox="0 0 53 55" fill="none" xmlns="http://www.w3.org/2000/svg">
<path d="M40.9318 24.8141C40.8519 24.7482 40.1064 24.1641 38.5343 24.1641C38.1191 24.166 37.7049 24.2029 37.2955 24.2746C36.9913 22.1103 35.267 21.0551 35.1897 21.0078L34.7675 20.7551L34.4898 21.1709C34.1421 21.7294 33.8883 22.3451 33.7393 22.9918C33.4578 24.2273 33.629 25.3877 34.2337 26.3797C33.5035 26.802 32.332 26.906 32.0949 26.9152H12.6994C12.1928 26.9159 11.7817 27.3408 11.7789 27.8664C11.7563 29.6297 12.0442 31.3825 12.6284 33.0384C13.2965 34.8567 14.2905 36.1961 15.5838 37.0157C17.0329 37.9367 19.3873 38.463 22.0561 38.463C23.2617 38.4669 24.4651 38.3537 25.6505 38.1249C27.2982 37.8109 28.8837 37.2133 30.3415 36.3566C31.5426 35.6347 32.6237 34.7164 33.5428 33.637C35.0794 31.8319 35.9949 29.8215 36.6756 28.0348H36.947C38.6294 28.0348 39.664 27.3362 40.2345 26.7507C40.6136 26.3773 40.9096 25.9225 41.1017 25.4179L41.2222 25.0522L40.9318 24.8141Z" fill="#2496ED"/>
<path d="M14.4972 26.3257H17.0963C17.2216 26.3257 17.3232 26.2203 17.3232 26.0902V23.6877C17.3239 23.5577 17.2229 23.4517 17.0976 23.4509C17.0971 23.4509 17.0967 23.4509 17.0963 23.4509H14.4972C14.3718 23.4509 14.2703 23.5564 14.2703 23.6864V23.6877V26.0902C14.2703 26.2203 14.3718 26.3257 14.4972 26.3257Z" fill="#2496ED"/>
<path d="M18.0788 26.3257H20.6779C20.8033 26.3257 20.9048 26.2203 20.9048 26.0902V23.6877C20.9055 23.5577 20.8045 23.4517 20.6792 23.4509C20.6787 23.4509 20.6783 23.4509 20.6779 23.4509H18.0788C17.9527 23.4509 17.8506 23.5569 17.8506 23.6877V26.0902C17.8513 26.2205 17.9533 26.3257 18.0788 26.3257Z" fill="#2496ED"/>
<path d="M21.715 26.3257H24.3141C24.4394 26.3257 24.541 26.2203 24.541 26.0902V23.6877C24.5417 23.5577 24.4407 23.4517 24.3153 23.4509C24.3149 23.4509 24.3145 23.4509 24.314 23.4509H21.715C21.5896 23.4509 21.488 23.5564 21.488 23.6864V23.6877V26.0902C21.4881 26.2203 21.5897 26.3257 21.715 26.3257Z" fill="#2496ED"/>
<path d="M25.3081 26.3257H27.9072C28.0327 26.3257 28.1347 26.2205 28.1354 26.0902V23.6877C28.1354 23.5569 28.0332 23.4509 27.9072 23.4509H25.3081C25.1828 23.4509 25.0812 23.5564 25.0812 23.6864V23.6877V26.0902C25.0812 26.2203 25.1828 26.3257 25.3081 26.3257Z" fill="#2496ED"/>
<path d="M18.0789 22.8696H20.678C20.8035 22.8689 20.9049 22.7631 20.9049 22.6328V20.2304C20.9049 20.1003 20.8033 19.9949 20.678 19.9949H18.0789C17.9534 19.9949 17.8514 20.1001 17.8507 20.2304V22.6328C17.8514 22.7633 17.9531 22.8689 18.0789 22.8696Z" fill="#2496ED"/>
<path d="M21.715 22.8696H24.314C24.4396 22.8689 24.541 22.7631 24.541 22.6328V20.2304C24.541 20.1003 24.4394 19.9949 24.314 19.9949H21.715C21.5896 19.9949 21.488 20.1003 21.488 20.2304V22.6328C21.488 22.7631 21.5894 22.8689 21.715 22.8696Z" fill="#2496ED"/>
<path d="M25.3081 22.8696H27.9072C28.033 22.8689 28.1347 22.7633 28.1354 22.6328V20.2304C28.1347 20.1001 28.0327 19.9949 27.9072 19.9949H25.3081C25.1828 19.9949 25.0812 20.1003 25.0812 20.2304V22.6328C25.0812 22.7631 25.1826 22.8689 25.3081 22.8696Z" fill="#2496ED"/>
<path d="M25.3081 19.4119H27.9072C28.0327 19.4119 28.1347 19.3067 28.1354 19.1764V16.7726C28.1347 16.6423 28.0327 16.5371 27.9072 16.5371H25.3081C25.1828 16.5371 25.0812 16.6425 25.0812 16.7726V19.1764C25.0812 19.3065 25.1828 19.4119 25.3081 19.4119Z" fill="#2496ED"/>
<path d="M28.9329 26.3257H31.5319C31.6575 26.3257 31.7594 26.2205 31.7601 26.0902V23.6877C31.7601 23.5569 31.658 23.4509 31.5319 23.4509H28.9329C28.8076 23.4509 28.7059 23.5564 28.7059 23.6864V23.6877V26.0902C28.7059 26.2203 28.8076 26.3257 28.9329 26.3257Z" fill="#2496ED"/>
</svg>
