<svg width="50" height="55" viewBox="0 0 50 55" fill="none" xmlns="http://www.w3.org/2000/svg">
<path d="M28.1405 23.259L25.3625 26.1042L22.7838 20.3803L24.1159 17.0891C24.4526 16.4326 25.0033 16.424 25.34 17.0891L28.1405 23.259Z" fill="#FFA000"/>
<path d="M25.3638 26.1028L14.9724 36.7343L22.7851 20.3801L25.3638 26.1028Z" fill="#F57F17"/>
<path d="M31.1866 18.9075C31.6843 18.386 32.1967 18.5619 32.3262 19.3026L35.0276 36.5908L26.0675 42.5079C25.7534 42.7011 24.9201 42.7767 24.9201 42.7767C24.9201 42.7767 24.1622 42.6751 23.8717 42.4992L14.9724 36.7344L31.1866 18.9075Z" fill="#FFCA28"/>
<path d="M22.7851 20.3802L14.9724 36.7343L18.4542 12.8305C18.5848 12.0897 18.9666 12.0142 19.3111 12.6707L22.7851 20.3802Z" fill="#FFA000"/>
</svg>
