<svg width="56" height="55" viewBox="0 0 56 55" fill="none" xmlns="http://www.w3.org/2000/svg">
<path d="M14.5119 33.0333C14.5412 33.0995 14.5743 33.1606 14.61 33.2217C14.6265 33.2574 14.6494 33.2943 14.6698 33.3274C14.7029 33.3936 14.7386 33.4572 14.7729 33.5209L14.9728 33.857C15.0097 33.9194 15.0454 33.9805 15.0874 34.0416C15.1574 34.1613 15.2402 34.2784 15.3128 34.3981C15.3459 34.4478 15.3764 34.4974 15.4133 34.5471C15.5534 34.7648 15.6807 34.9456 15.8169 35.1213C15.9137 35.2524 16.0104 35.381 16.1148 35.5096C16.1492 35.558 16.1874 35.6063 16.2231 35.6547L16.5044 35.9959C16.5388 36.0354 16.5732 36.0812 16.6101 36.122C16.7349 36.2722 16.8673 36.4173 16.9997 36.565C16.9997 36.5676 17.0035 36.5701 17.0061 36.5739C17.1703 36.7802 17.3473 36.9635 17.5408 37.1265L17.5459 37.1316C17.6477 37.236 17.7496 37.3391 17.8578 37.441L17.9864 37.5645C18.1277 37.6969 18.269 37.828 18.418 37.9553C18.4205 37.9553 18.4218 37.9579 18.4244 37.9591L18.4969 38.0228C18.6268 38.1361 18.7579 38.2481 18.8916 38.3525L19.0508 38.4862C19.159 38.5728 19.271 38.6543 19.3818 38.7396L19.5549 38.872C19.6733 38.9611 19.7994 39.0477 19.9203 39.1343C19.9649 39.1661 20.0094 39.1979 20.0553 39.2272L20.0922 39.2565L20.45 39.4907L20.6027 39.5926C20.7899 39.7123 20.9758 39.8243 21.1617 39.9364C21.2151 39.9631 21.2686 39.9924 21.3183 40.0229C21.4558 40.1019 21.5984 40.1821 21.7371 40.2546C21.8135 40.2979 21.8925 40.3349 21.9714 40.3743C22.0669 40.4278 22.1662 40.48 22.268 40.5335C22.296 40.5424 22.319 40.5513 22.3419 40.564L22.347 40.5589C22.389 40.578 22.4285 40.5984 22.4692 40.6188C22.622 40.6952 22.7811 40.7677 22.9466 40.839C22.9772 40.8518 23.0103 40.8645 23.0434 40.8823C23.2267 40.9625 23.4101 41.0389 23.5998 41.1128C23.6431 41.1255 23.6889 41.1471 23.7334 41.1637C23.9053 41.2286 24.0823 41.2948 24.258 41.3572L24.3216 41.3801C24.5164 41.4463 24.7087 41.51 24.9073 41.5698C24.9531 41.5825 25.0002 41.5991 25.0486 41.6118C25.2511 41.6729 25.4471 41.7455 25.6521 41.7837C38.7313 44.1556 42.5317 33.9589 42.5317 33.9589C39.3386 38.0966 33.6717 39.1877 28.3054 37.9731C28.1068 37.9273 27.9081 37.8636 27.707 37.8051C27.4231 37.7247 27.1416 37.636 26.8629 37.539L26.9838 37.5759L26.9049 37.5454C26.7317 37.4868 26.565 37.4219 26.3956 37.3569C26.3542 37.3394 26.3121 37.3232 26.2696 37.3086L26.2556 37.3047C26.0684 37.2296 25.8864 37.1532 25.7056 37.073C25.6661 37.0603 25.633 37.0425 25.5935 37.0272C25.3794 36.9339 25.1672 36.8362 24.957 36.7344L25.1327 36.812C25.0868 36.7917 25.0418 36.7697 24.9977 36.7458C24.878 36.6898 24.7583 36.6261 24.6412 36.5663C24.552 36.524 24.4641 36.479 24.3777 36.4313L24.4031 36.4441C24.2593 36.3677 24.1154 36.2849 23.9703 36.2073C23.927 36.1767 23.8773 36.1512 23.8277 36.1232C23.6119 35.9978 23.3988 35.868 23.1885 35.7337L23.2687 35.782C23.2148 35.7487 23.1622 35.7135 23.1109 35.6764L23.1185 35.6815C22.9817 35.5974 22.8475 35.5091 22.7162 35.4166C22.6729 35.3886 22.6334 35.3581 22.5889 35.3275C22.4517 35.2339 22.3167 35.1371 22.184 35.0372L22.2146 35.0589C22.1611 35.0156 22.1038 34.9748 22.0465 34.9328C21.9345 34.845 21.8212 34.761 21.7091 34.6693L21.5589 34.5496C21.3988 34.4222 21.2417 34.291 21.0878 34.1562L21.0865 34.1549L20.6448 33.7539L20.5174 33.6342C20.413 33.5285 20.3061 33.428 20.1991 33.3236L20.0757 33.1962C19.9438 33.0657 19.8152 32.932 19.6899 32.7952L19.6822 32.7863L19.6606 32.7685C19.5258 32.6204 19.393 32.4706 19.2621 32.319C19.2277 32.2796 19.1959 32.2376 19.1602 32.1955L18.8712 31.8454C18.741 31.6818 18.6136 31.5158 18.4893 31.3476L18.4384 31.2763C15.4617 27.2328 14.3846 21.6525 16.7667 17.0742L14.6634 19.7339C11.958 23.603 12.2928 28.6345 14.3617 32.743C14.4088 32.8436 14.461 32.9378 14.5119 33.0333Z" fill="white"/>
<path d="M23.6261 27.4586L23.6109 27.4386L23.5985 27.4236L23.6261 27.4586Z" fill="black"/>
<path d="M25.0473 29.1295L25.1619 29.2441C25.3071 29.3841 25.456 29.5204 25.6075 29.6566L25.6266 29.6731C25.7794 29.8081 25.9513 29.9494 26.1283 30.0869L26.155 30.1073C26.1983 30.1366 26.2352 30.171 26.2772 30.2002C26.4555 30.3377 26.635 30.4689 26.8221 30.6L26.8412 30.6115C26.9202 30.6688 27.0042 30.721 27.0933 30.777C27.129 30.7999 27.1697 30.8304 27.2079 30.8534C27.3428 30.9399 27.4753 31.0201 27.6115 31.1029C27.6331 31.1118 27.6522 31.1233 27.6726 31.1322C27.7872 31.2022 27.912 31.2697 28.0316 31.3308C28.0736 31.3563 28.1144 31.3754 28.1577 31.3995C28.243 31.4416 28.327 31.4861 28.4085 31.5294L28.4492 31.5472C28.6211 31.6313 28.7968 31.7102 28.9687 31.7879C29.012 31.8044 29.0489 31.8184 29.0858 31.8362C29.2271 31.8974 29.371 31.9559 29.5123 32.0094C29.576 32.031 29.6358 32.0565 29.6956 32.0756C29.8255 32.124 29.9617 32.1685 30.0903 32.2131L30.2686 32.2704C30.4545 32.3277 30.6429 32.4028 30.8402 32.4334C40.9402 34.0961 43.2777 26.3591 43.2777 26.3591C41.1732 29.3727 37.1004 30.8088 32.7601 29.6871C32.5435 29.6325 32.3286 29.5709 32.1159 29.5025L32.1885 29.5229C32.1274 29.5064 32.0739 29.4873 32.0153 29.4694C31.8829 29.4236 31.7467 29.379 31.6181 29.3319L31.4348 29.2632C31.2922 29.2059 31.1471 29.1524 31.0083 29.0913C30.965 29.0722 30.9255 29.0595 30.8924 29.0404C30.7142 28.9602 30.5347 28.8812 30.3602 28.7972L30.098 28.661L29.9465 28.5846C29.8293 28.5235 29.7211 28.4598 29.6091 28.3949C29.5805 28.3815 29.5529 28.3662 29.5263 28.3491L29.5301 28.3503C29.3952 28.2663 29.2551 28.1848 29.1253 28.0995C29.082 28.0753 29.0425 28.046 29.0018 28.0206L28.737 27.8487C28.5536 27.7214 28.3741 27.5852 28.192 27.4528C28.1513 27.4158 28.1118 27.3853 28.0724 27.3522C26.1639 25.8588 24.659 23.8179 23.9448 21.5071C23.1923 19.1046 23.3579 16.4106 24.6578 14.2246L23.0599 16.4756C21.098 19.2778 21.2088 23.0234 22.7366 25.9873C23.0154 26.5348 23.298 26.997 23.6099 27.4375C23.9002 27.8525 24.2211 28.3389 24.6081 28.6724C24.7456 28.829 24.8933 28.978 25.0473 29.1295Z" fill="white"/>
<path d="M30.1208 14.0389C28.9635 15.7283 28.8527 17.8265 29.6497 19.6891C30.4964 21.6676 32.2266 23.2209 34.2433 23.9568C34.3261 23.9886 34.4063 24.0153 34.4916 24.0459L34.6036 24.0803C34.7207 24.1172 34.8391 24.1605 34.9601 24.1872C40.5378 25.258 42.0478 21.3379 42.4539 20.7611C41.126 22.6582 38.8993 23.114 36.1671 22.4532C35.9295 22.3952 35.6956 22.323 35.4668 22.2367L35.5088 22.2507C35.2241 22.1522 34.9452 22.0374 34.6736 21.907L34.722 21.9286C34.2 21.674 33.7519 21.399 33.3355 21.0833C30.8936 19.2372 29.3836 15.722 30.9776 12.8586L30.1208 14.0389Z" fill="white"/>
</svg>
