<svg width="56" height="55" viewBox="0 0 56 55" fill="none" xmlns="http://www.w3.org/2000/svg">
<path d="M41.101 35.8249C39.4083 35.7828 38.0964 35.9516 36.9961 36.4156C36.6787 36.5421 36.1708 36.5422 36.1285 36.9431C36.2978 37.1118 36.3189 37.3861 36.4671 37.618C36.7213 38.0399 37.1653 38.6095 37.5674 38.905C38.0116 39.2424 38.4562 39.5799 38.9215 39.8752C39.7468 40.3816 40.6779 40.6768 41.4819 41.1831C41.9476 41.4783 42.4128 41.8583 42.8784 42.1746C43.1112 42.3431 43.2592 42.6176 43.5556 42.723V42.6598C43.4073 42.4698 43.365 42.1957 43.217 41.9847C43.0056 41.7737 42.7937 41.5839 42.5821 41.3729C41.9686 40.5503 41.2068 39.833 40.3817 39.2424C39.7046 38.7783 38.2233 38.1455 37.9483 37.3649C37.9483 37.3649 37.927 37.3439 37.906 37.3228C38.3714 37.2806 38.9215 37.1118 39.366 36.9852C40.0854 36.7952 40.7413 36.8376 41.4819 36.6477C41.8204 36.5633 42.159 36.4578 42.4975 36.3523V36.1626C42.1168 35.7828 41.8417 35.2766 41.4396 34.9179C40.3605 33.9895 39.1754 33.0826 37.9483 32.3232C37.2923 31.9013 36.4458 31.627 35.7476 31.2685C35.4939 31.1418 35.0705 31.0786 34.9225 30.8676C34.5415 30.4036 34.3298 29.7919 34.0549 29.2434C33.4414 28.083 32.8487 26.7963 32.3197 25.5729C31.939 24.7501 31.7062 23.9273 31.2407 23.1681C29.0613 19.5819 26.6914 17.4091 23.052 15.2784C22.269 14.8354 21.338 14.6456 20.3435 14.4136C19.8147 14.3924 19.2855 14.3503 18.7566 14.3291C18.418 14.1814 18.0794 13.7807 17.7832 13.5908C16.5773 12.8313 13.4666 11.1861 12.578 13.3589C12.0066 14.73 13.4244 16.0799 13.9109 16.7763C14.2709 17.2614 14.7362 17.8098 14.9902 18.3583C15.1383 18.7168 15.1805 19.0967 15.3286 19.4764C15.6673 20.4043 15.9845 21.4382 16.4291 22.3032C16.6618 22.7461 16.9157 23.2101 17.2119 23.611C17.3812 23.8429 17.6774 23.9485 17.741 24.3282C17.4448 24.7501 17.4235 25.383 17.2541 25.9103C16.4924 28.2941 16.7888 31.2474 17.8678 32.9982C18.2063 33.5254 19.0104 34.686 20.0896 34.2428C21.0419 33.8632 20.8302 32.6608 21.1051 31.606C21.1688 31.3526 21.1265 31.1841 21.2534 31.0153V31.0576C21.5496 31.6481 21.8458 32.2179 22.1209 32.8085C22.7769 33.842 23.9194 34.9179 24.8716 35.6353C25.3796 36.0148 25.7815 36.6688 26.4164 36.9009V36.8374H26.3739C26.247 36.6476 26.0565 36.5633 25.8873 36.4155C25.5065 36.036 25.0832 35.5718 24.787 35.1499C23.8985 33.9684 23.1154 32.6607 22.4171 31.3105C22.0787 30.6568 21.7823 29.9395 21.5073 29.2856C21.3802 29.0322 21.3802 28.6526 21.1687 28.5262C20.8513 28.9902 20.3858 29.391 20.1531 29.9606C19.7512 30.8676 19.7088 31.9857 19.5607 33.1458C19.476 33.1671 19.5182 33.1458 19.4759 33.1882C18.7989 33.0192 18.5662 32.3232 18.3121 31.7325C17.6772 30.2348 17.5714 27.83 18.1218 26.1002C18.2699 25.6572 18.9048 24.265 18.6508 23.843C18.5238 23.4422 18.1005 23.2101 17.8678 22.8938C17.5928 22.4929 17.2964 21.9868 17.1061 21.5437C16.5982 20.3623 16.3443 19.0544 15.7942 17.8731C15.5403 17.3246 15.0961 16.7552 14.7362 16.2488C14.3343 15.6793 13.8899 15.2784 13.5724 14.6034C13.4668 14.3714 13.3185 13.9917 13.4878 13.7385C13.5301 13.5697 13.6146 13.5066 13.7841 13.4644C14.0592 13.2322 14.8422 13.5275 15.117 13.6541C15.9 13.9703 16.5559 14.2659 17.2119 14.7089C17.5081 14.9198 17.8255 15.3207 18.2063 15.4262H18.6507C19.3279 15.5737 20.0895 15.4684 20.7243 15.6581C21.8459 16.0167 22.8614 16.5441 23.7714 17.1137C26.5433 18.8646 28.8283 21.3538 30.3732 24.3282C30.6271 24.8132 30.7328 25.2564 30.9656 25.7625C31.4101 26.7963 31.9602 27.8511 32.4043 28.8636C32.8487 29.8549 33.2719 30.8676 33.9067 31.6904C34.2241 32.1332 35.4936 32.3654 36.065 32.5975C36.4882 32.7872 37.1442 32.9561 37.525 33.1881C38.2444 33.6309 38.9638 34.1375 39.641 34.6225C39.9796 34.8756 41.0374 35.4031 41.101 35.8249Z" fill="white"/>
<path d="M19.518 17.4932C19.1584 17.4932 18.9046 17.5356 18.6506 17.5988V17.641H18.693C18.8624 17.9785 19.1584 18.2106 19.3699 18.5058C19.5393 18.8433 19.6873 19.181 19.8567 19.5185C19.8778 19.4973 19.8989 19.4763 19.8989 19.4763C20.1953 19.2652 20.3433 18.9278 20.3433 18.4214C20.2164 18.2739 20.1952 18.1262 20.0894 17.9785C19.9625 17.7674 19.6873 17.6621 19.518 17.4932Z" fill="white"/>
</svg>
