<svg width="54" height="55" viewBox="0 0 54 55" fill="none" xmlns="http://www.w3.org/2000/svg">
<path fill-rule="evenodd" clip-rule="evenodd" d="M29.3651 12.2822C29.1521 12.2822 28.9544 12.3296 28.7719 12.3927C29.1597 12.661 29.3727 13.0161 29.4791 13.4185C29.4867 13.4738 29.5019 13.5132 29.5095 13.5685C29.5172 13.6158 29.5247 13.6632 29.5247 13.7105C29.5552 14.4049 29.3498 14.4917 29.2054 14.902C28.9849 15.4307 29.0457 15.9989 29.3118 16.4566C29.3346 16.5118 29.3651 16.5749 29.4031 16.6302C29.1141 14.6337 30.7186 14.3339 31.0151 13.7105C31.038 13.166 30.6045 12.803 30.2623 12.5505C29.9354 12.3454 29.6388 12.2822 29.3651 12.2822ZM31.7832 12.732C31.7527 12.9135 31.7755 12.8662 31.768 12.9609C31.7603 13.024 31.7603 13.1029 31.7528 13.166C31.7376 13.2291 31.7223 13.2923 31.6995 13.3554C31.6843 13.4185 31.6615 13.4817 31.6387 13.5448C31.6083 13.6079 31.5855 13.6632 31.5551 13.7263C31.5322 13.7579 31.517 13.7894 31.4942 13.821C31.479 13.8446 31.4638 13.8683 31.4486 13.892C31.4106 13.9472 31.3726 14.0025 31.3345 14.0498C31.2889 14.0972 31.2509 14.1524 31.1977 14.1919V14.1998C31.152 14.2392 31.1064 14.2866 31.0532 14.326C30.8935 14.4523 30.711 14.547 30.5437 14.6653C30.4905 14.7048 30.4373 14.7363 30.3916 14.7837C30.3384 14.8231 30.2928 14.8626 30.2472 14.9099C30.1939 14.9573 30.1559 15.0046 30.1103 15.0599C30.0723 15.1072 30.0266 15.1625 29.9962 15.2177C29.9582 15.2729 29.9202 15.3282 29.8898 15.3834C29.8593 15.4465 29.8365 15.5018 29.8061 15.5649C29.7833 15.628 29.7605 15.6833 29.7453 15.7464C29.7225 15.8174 29.7073 15.8805 29.6921 15.9437C29.6844 15.9752 29.6844 16.0147 29.6769 16.0463C29.6692 16.0778 29.6692 16.1094 29.6617 16.1409C29.6617 16.2041 29.6541 16.2751 29.6541 16.3382C29.6541 16.3856 29.6541 16.4329 29.6617 16.4803C29.6617 16.5434 29.6693 16.6065 29.6845 16.6775C29.6921 16.7407 29.7073 16.8038 29.7225 16.8669C29.7453 16.93 29.7605 16.9932 29.7833 17.0563C29.7985 17.0958 29.8213 17.1352 29.8366 17.1668L28.0876 16.4645C27.7911 16.3777 27.5021 16.2988 27.2055 16.2277C27.0459 16.1883 26.8862 16.1488 26.7265 16.1094C26.2702 16.0147 25.8064 15.9437 25.3426 15.8963C25.3274 15.8963 25.3197 15.8884 25.3045 15.8884C24.8483 15.8411 24.3996 15.8174 23.9434 15.8174C23.6088 15.8174 23.2742 15.8332 22.9473 15.8569C22.4834 15.8884 22.0196 15.9516 21.5557 16.0305C21.4417 16.0462 21.3276 16.0699 21.2135 16.0936C20.9778 16.1409 20.7497 16.1962 20.5292 16.2514C20.4151 16.283 20.301 16.3145 20.187 16.3461C20.0729 16.3934 19.9665 16.4487 19.86 16.496C19.7764 16.5355 19.6927 16.5749 19.6091 16.6144C19.5939 16.6223 19.5787 16.6223 19.5711 16.6302C19.495 16.6696 19.4266 16.7012 19.3581 16.7406C19.3353 16.7485 19.3201 16.7564 19.3049 16.7643C19.2213 16.8038 19.1376 16.8511 19.0692 16.8906C19.016 16.9142 18.9627 16.9458 18.9171 16.9695C18.8943 16.9853 18.8639 17.0011 18.8487 17.0089C18.7802 17.0484 18.7118 17.0878 18.651 17.1273C18.5825 17.1668 18.5217 17.2062 18.4685 17.2457C18.4152 17.2851 18.362 17.3167 18.3164 17.3561C18.3088 17.364 18.3012 17.364 18.2936 17.3719C18.2479 17.4035 18.1947 17.4429 18.1491 17.4824C18.1491 17.4824 18.1415 17.4903 18.1339 17.4982C18.0959 17.5297 18.0579 17.5613 18.0198 17.5928C18.0046 17.6007 17.9894 17.6165 17.9742 17.6244C17.9362 17.656 17.8982 17.6954 17.8602 17.727C17.8525 17.7428 17.8373 17.7507 17.8297 17.7586C17.7841 17.8059 17.7385 17.8454 17.6929 17.8927C17.6852 17.8927 17.6852 17.9006 17.6777 17.9085C17.632 17.948 17.5864 17.9953 17.5408 18.0426C17.5332 18.0506 17.5332 18.0584 17.5256 18.0584C17.4876 18.0979 17.4495 18.1373 17.4115 18.1847C17.3963 18.2004 17.3735 18.2162 17.3583 18.232C17.3203 18.2794 17.2747 18.3267 17.229 18.3741C17.2214 18.3898 17.2062 18.3977 17.1986 18.4135C17.1378 18.4766 17.0845 18.5398 17.0237 18.6029C17.0161 18.6108 17.0085 18.6187 17.0009 18.6266C16.8792 18.7607 16.75 18.8949 16.6131 19.0132C16.4762 19.1395 16.3317 19.2579 16.1873 19.3604C16.0352 19.4709 15.8907 19.5656 15.731 19.6603C15.5789 19.7471 15.4192 19.826 15.252 19.897C15.0923 19.968 14.925 20.0312 14.7577 20.0864C14.4383 20.1574 14.1113 20.2916 13.83 20.3152C13.7692 20.3152 13.7007 20.331 13.6399 20.3389C13.5715 20.3547 13.5106 20.3705 13.4498 20.3863C13.389 20.4099 13.3281 20.4336 13.2673 20.4573C13.2065 20.481 13.1456 20.5125 13.0848 20.5441C13.0316 20.5835 12.9707 20.6151 12.9175 20.6546C12.8643 20.694 12.8111 20.7414 12.7654 20.7887C12.7122 20.8282 12.659 20.8834 12.6133 20.9307C12.5677 20.986 12.5221 21.0333 12.4841 21.0886C12.4461 21.1517 12.4004 21.2069 12.37 21.2701C12.332 21.3253 12.294 21.3884 12.2636 21.4516C12.2331 21.5226 12.2027 21.5857 12.1799 21.6567C12.1571 21.7198 12.1343 21.7909 12.1115 21.8619C12.0963 21.925 12.081 21.9881 12.0735 22.0513C12.0735 22.0592 12.0658 22.067 12.0658 22.0749C12.0506 22.146 12.0506 22.2407 12.043 22.288C12.0354 22.3432 12.0278 22.3906 12.0278 22.4458C12.0278 22.4774 12.0278 22.5168 12.0354 22.5484C12.0431 22.6036 12.0506 22.651 12.0659 22.6983C12.0811 22.7457 12.0963 22.793 12.1191 22.8404V22.8483C12.1419 22.8956 12.1723 22.943 12.2027 22.9903C12.2332 23.0377 12.2636 23.085 12.3016 23.1324C12.3396 23.1718 12.3852 23.2192 12.4309 23.2586C12.4765 23.306 12.5221 23.3454 12.5753 23.3849C12.7578 23.5506 12.8035 23.6058 13.0392 23.7321C13.0772 23.7557 13.1152 23.7715 13.1609 23.7952C13.1685 23.7952 13.1761 23.8031 13.1837 23.8031C13.1837 23.8189 13.1837 23.8268 13.1913 23.8426C13.1989 23.9057 13.2141 23.9688 13.2293 24.0319C13.2445 24.103 13.2673 24.1661 13.2901 24.2213C13.313 24.2687 13.3282 24.316 13.351 24.3634C13.3586 24.3791 13.3662 24.3949 13.3738 24.4028C13.4042 24.466 13.4346 24.5212 13.465 24.5764C13.5031 24.6317 13.5411 24.6869 13.5791 24.7421C13.6171 24.7895 13.6627 24.8447 13.7084 24.8921C13.754 24.9394 13.7996 24.9789 13.8528 25.0262C13.8528 25.0262 13.8605 25.0341 13.868 25.0341C13.9137 25.0736 13.9593 25.113 14.0049 25.1446C14.0581 25.1841 14.1114 25.2156 14.1722 25.2472C14.2254 25.2788 14.2863 25.3103 14.3471 25.334C14.3927 25.3577 14.446 25.3734 14.4992 25.3892C14.5068 25.3971 14.5144 25.3971 14.5296 25.405C14.56 25.4129 14.598 25.4208 14.6285 25.4287C14.6056 25.8548 14.598 26.2572 14.6589 26.3993C14.7273 26.5571 15.0619 26.0757 15.3965 25.5234C15.3509 26.0678 15.3204 26.707 15.3965 26.8964C15.4801 27.0937 15.9364 26.4782 16.3318 25.7995C21.7231 24.5054 26.6429 28.372 27.16 33.8326C27.0611 32.9804 26.0498 32.5069 25.5859 32.6253C25.3578 33.2092 24.97 33.9589 24.3465 34.4244C24.3997 33.9036 24.3769 33.367 24.2704 32.8462C24.1031 33.5722 23.7762 34.2508 23.3275 34.8348C22.6051 34.89 21.8828 34.527 21.5026 33.9825C21.4721 33.9589 21.4645 33.9115 21.4417 33.8799C21.4189 33.8247 21.3961 33.7695 21.3809 33.7142C21.3581 33.659 21.3429 33.6038 21.3353 33.5485C21.3276 33.4933 21.3276 33.438 21.3276 33.3749C21.3276 33.3355 21.3276 33.296 21.3276 33.2566C21.3353 33.2013 21.3505 33.1461 21.3657 33.0908C21.3809 33.0356 21.3961 32.9804 21.4189 32.9251C21.4493 32.8699 21.4721 32.8147 21.5101 32.7594C21.6394 32.3806 21.6394 32.0729 21.4037 31.8914C21.3581 31.8598 21.3124 31.8362 21.2592 31.8125C21.2288 31.8046 21.1908 31.7888 21.1604 31.7809C21.1375 31.773 21.1223 31.7651 21.0995 31.7572C21.0463 31.7415 20.9931 31.7257 20.9398 31.7178C20.8866 31.702 20.8334 31.6941 20.7802 31.6941C20.7269 31.6862 20.6661 31.6783 20.6129 31.6783C20.5748 31.6783 20.5368 31.6862 20.4988 31.6862C20.438 31.6862 20.3847 31.6942 20.3315 31.7099C20.2783 31.7178 20.2251 31.7257 20.1718 31.7415C20.1186 31.7573 20.0654 31.7731 20.0121 31.7967C19.9589 31.8204 19.9133 31.8441 19.8601 31.8678C19.8144 31.8914 19.7688 31.923 19.7156 31.9467C17.9438 33.1461 19.0008 35.9553 20.2098 36.7681C19.7536 36.8549 19.2898 36.9575 19.1605 37.06C19.1529 37.0679 19.1453 37.0758 19.1453 37.0758C19.4723 37.281 19.8144 37.4546 20.1718 37.6045C20.6585 37.7702 21.1756 37.9202 21.4037 37.9833V37.9912C22.0348 38.1253 22.6736 38.1727 23.3199 38.1332C26.6885 37.8886 29.4488 35.2293 29.9507 31.7257C29.9659 31.7967 29.9811 31.8599 29.9963 31.9309C30.0191 32.0729 30.0495 32.2229 30.0647 32.3728V32.3807C30.0799 32.4517 30.0875 32.5227 30.0952 32.5859V32.6174C30.1028 32.6885 30.1104 32.7595 30.1104 32.8226C30.118 32.9094 30.1256 32.9962 30.1256 33.083V33.2093C30.1256 33.2487 30.1332 33.2961 30.1332 33.3355C30.1332 33.3829 30.1256 33.4302 30.1256 33.4776V33.588C30.1256 33.6433 30.1179 33.6906 30.1179 33.7458C30.1179 33.7774 30.1179 33.809 30.1103 33.8484C30.1103 33.9037 30.1027 33.9589 30.1027 34.022C30.0951 34.0457 30.0951 34.0694 30.0951 34.0931C30.0875 34.1562 30.0799 34.2114 30.0723 34.2745C30.0723 34.2982 30.0723 34.3219 30.0647 34.3456C30.057 34.4245 30.0418 34.4955 30.0342 34.5744V34.5823V34.5902C30.019 34.6612 30.0038 34.7401 29.9886 34.8112V34.8348C29.9734 34.9059 29.9582 34.9769 29.943 35.0479C29.943 35.0558 29.9354 35.0716 29.9354 35.0795C29.9202 35.1505 29.9049 35.2215 29.8821 35.2925V35.3162C29.8593 35.3951 29.8365 35.4661 29.8213 35.5372C29.8137 35.5451 29.8137 35.5529 29.8137 35.5529C29.7909 35.6318 29.7681 35.7107 29.7453 35.7897C29.7148 35.8686 29.692 35.9396 29.6616 36.0185C29.6312 36.0974 29.6084 36.1763 29.578 36.2473C29.5475 36.3262 29.5171 36.3973 29.4867 36.4762H29.4791C29.4487 36.5472 29.4183 36.6261 29.3802 36.6971C29.3726 36.7208 29.365 36.7366 29.3574 36.7524C29.3498 36.7603 29.3498 36.7681 29.3422 36.776C28.848 37.8098 28.118 38.7172 27.2055 39.4274C27.1447 39.4669 27.0838 39.5142 27.023 39.5616C27.0078 39.5773 26.985 39.5852 26.9698 39.601C26.9165 39.6405 26.8633 39.6799 26.8025 39.7194L26.8253 39.7667H26.8329C26.9394 39.751 27.0458 39.7352 27.1523 39.7194H27.1599C27.3576 39.6878 27.5553 39.6484 27.753 39.6089C27.8062 39.601 27.8671 39.5852 27.9203 39.5694C27.9583 39.5615 27.9887 39.5537 28.0267 39.5458C28.08 39.5379 28.1332 39.5221 28.1864 39.5142C28.2321 39.4984 28.2777 39.4905 28.3233 39.4747C29.0837 39.2854 29.8213 39.025 30.5285 38.7172C29.3194 40.4296 27.6998 41.8105 25.8064 42.718C26.6808 42.6548 27.5553 42.5049 28.3993 42.2524C31.4638 41.3133 34.0416 39.1749 35.5852 36.2947C35.2734 38.1175 34.5739 39.8535 33.5397 41.3686C34.2773 40.8636 34.9541 40.2796 35.57 39.6168C37.2733 37.7703 38.3911 35.4267 38.7713 32.9094C39.0298 34.1562 39.1059 35.4424 38.9918 36.7129C44.482 28.7666 39.4481 20.5284 37.3417 18.3584C37.3341 18.3426 37.3265 18.3347 37.3265 18.3189C37.3189 18.3268 37.3189 18.3268 37.3189 18.3347C37.3189 18.3268 37.3189 18.3268 37.3113 18.3189C37.3113 18.4136 37.3037 18.5083 37.2961 18.603C37.2733 18.7845 37.2505 18.9581 37.2201 19.1317C37.182 19.3053 37.1364 19.4789 37.0908 19.6525C37.0376 19.8182 36.9767 19.9918 36.9083 20.1575C36.8399 20.3153 36.7638 20.4811 36.6802 20.6389C36.5965 20.7888 36.5053 20.9466 36.4064 21.0887C36.3076 21.2386 36.2011 21.3806 36.0947 21.5148C35.9806 21.6568 35.8589 21.7831 35.7373 21.9093C35.6612 21.9804 35.5928 22.0435 35.5167 22.1066C35.4559 22.1618 35.4027 22.2092 35.3419 22.2644C35.205 22.3749 35.0681 22.4775 34.916 22.5722C34.7715 22.6669 34.6195 22.7616 34.4674 22.8405C34.3077 22.9194 34.148 22.9904 33.9883 23.0614C33.8286 23.1246 33.6614 23.1798 33.4941 23.2271C33.3268 23.2745 33.1519 23.3139 32.9846 23.3455C32.8097 23.3771 32.6348 23.3928 32.4675 23.4086C32.3459 23.4165 32.2242 23.4244 32.1025 23.4244C31.9276 23.4244 31.7527 23.4086 31.5854 23.3928C31.4106 23.3771 31.2357 23.3534 31.0684 23.3139C30.8935 23.2823 30.7262 23.235 30.5589 23.1798H30.5513C30.7186 23.164 30.8859 23.1482 31.0532 23.1166C31.228 23.0851 31.3953 23.0456 31.5626 22.9983C31.7299 22.9509 31.8972 22.8957 32.0569 22.8326C32.2242 22.7694 32.3839 22.6905 32.5359 22.6116C32.6956 22.5327 32.8401 22.4459 32.9922 22.3512C33.1367 22.2486 33.2811 22.146 33.418 22.0356C33.5549 21.9251 33.6842 21.8067 33.8058 21.6805C33.9351 21.5621 34.0492 21.428 34.1632 21.2938C34.2773 21.1518 34.3837 21.0097 34.4826 20.8677C34.4978 20.844 34.513 20.8125 34.5282 20.7888C34.6043 20.6625 34.6803 20.5363 34.7487 20.41C34.8324 20.2522 34.9084 20.0944 34.9769 19.9287C35.0453 19.763 35.1061 19.5972 35.1593 19.4236C35.2126 19.2579 35.2506 19.0843 35.2886 18.9107C35.319 18.7292 35.3494 18.5556 35.3647 18.382C35.3799 18.2005 35.3951 18.019 35.3951 17.8454C35.3951 17.7192 35.3875 17.5929 35.3799 17.4667C35.3647 17.2852 35.3419 17.1116 35.3191 16.938C35.2886 16.7565 35.2506 16.5829 35.205 16.4093C35.1518 16.2436 35.0985 16.07 35.0377 15.9042C34.9769 15.7385 34.9008 15.5728 34.8248 15.415C34.7411 15.2572 34.6575 15.0994 34.5663 14.9494C34.4674 14.7995 34.3685 14.6575 34.2621 14.5154C34.148 14.3813 34.034 14.2471 33.9123 14.113C33.8515 14.0499 33.783 13.9788 33.7146 13.9157C33.3724 13.6395 33.015 13.3791 32.6576 13.1424C32.6044 13.1108 32.5588 13.0872 32.5056 13.0635C32.2546 12.8978 32.0189 12.8109 31.7832 12.732Z" fill="#E0234E"/>
</svg>
