<svg width="56" height="55" viewBox="0 0 56 55" fill="none" xmlns="http://www.w3.org/2000/svg">
<g clip-path="url(#clip0_118_7632)">
<path d="M35.8313 24.0037H43.9097V25.4183H40.7051V32.8602H39.1027V25.4183H35.8313V24.0037Z" fill="white"/>
<path d="M22.5454 24.0037V25.4183H16.07V27.6939H21.2775V29.1085H16.07V31.4456H22.5454V32.8602H14.4677V25.4183H14.467V24.0037H22.5454Z" fill="white"/>
<path d="M26.5791 24.0074H24.4822L31.993 32.8639H34.096L30.3402 28.4387L34.09 24.0142L31.993 24.0172L29.2903 27.2017L26.5791 24.0074Z" fill="white"/>
<path d="M28.7311 30.3336L27.6809 29.0949L24.4763 32.8706H26.5793L28.7311 30.3336Z" fill="white"/>
<path fill-rule="evenodd" clip-rule="evenodd" d="M14.5238 32.8602L7.0029 24H5V32.8565H6.60232V25.8931L12.5109 32.8602H14.5238Z" fill="white"/>
<path d="M44.2698 32.8061C44.1525 32.8061 44.0526 32.7676 43.9691 32.6904C43.8855 32.6133 43.8442 32.5199 43.8452 32.4093C43.8442 32.3017 43.8855 32.2093 43.9691 32.1322C44.0526 32.0551 44.1525 32.0165 44.2698 32.0165C44.3827 32.0165 44.4815 32.0551 44.565 32.1322C44.6498 32.2093 44.6921 32.3017 44.6932 32.4093C44.6921 32.4823 44.6725 32.5493 44.6334 32.6092C44.5933 32.6701 44.5423 32.7178 44.4782 32.7523C44.4152 32.7879 44.3457 32.8061 44.2698 32.8061Z" fill="white"/>
<path d="M47.0047 29.0751H47.7148V31.6704C47.7137 31.9089 47.6593 32.1129 47.553 32.2844C47.4456 32.456 47.2968 32.5869 47.1057 32.6792C46.9157 32.7706 46.6931 32.8173 46.4402 32.8173C46.2089 32.8173 46.0016 32.7777 45.817 32.7006C45.6324 32.6234 45.4859 32.5077 45.3784 32.3555C45.2698 32.2032 45.2166 32.0134 45.2166 31.7861H45.9278C45.9288 31.8856 45.9527 31.9718 45.9983 32.0439C46.0438 32.1159 46.1068 32.1707 46.1872 32.2093C46.2686 32.2479 46.362 32.2672 46.4673 32.2672C46.5813 32.2672 46.679 32.2448 46.7582 32.1992C46.8375 32.1545 46.8983 32.0875 46.9407 31.9982C46.9819 31.9099 47.0037 31.8003 47.0047 31.6704V29.0751Z" fill="white"/>
<path d="M50.6362 30.0901C50.6188 29.9328 50.5428 29.81 50.4104 29.7227C50.2768 29.6344 50.1042 29.5908 49.8924 29.5908C49.7438 29.5908 49.6157 29.6121 49.5093 29.6537C49.4029 29.6963 49.3204 29.7531 49.2639 29.8252C49.2075 29.8973 49.1792 29.9795 49.177 30.0719C49.177 30.149 49.1965 30.216 49.2345 30.2718C49.2726 30.3286 49.3235 30.3763 49.3898 30.4149C49.4549 30.4545 49.5276 30.487 49.607 30.5133C49.6873 30.5397 49.7677 30.5621 49.8479 30.5803L50.2182 30.6666C50.3669 30.6991 50.5114 30.7427 50.6492 30.7986C50.7871 30.8534 50.912 30.9234 51.0215 31.0076C51.1312 31.0919 51.2181 31.1934 51.2822 31.3121C51.3462 31.4309 51.3788 31.5699 51.3788 31.7303C51.3788 31.9465 51.3202 32.1363 51.2018 32.3007C51.0835 32.4641 50.913 32.592 50.6894 32.6843C50.4668 32.7757 50.1976 32.8224 49.8806 32.8224C49.5744 32.8224 49.3073 32.7777 49.0826 32.6884C48.8568 32.6001 48.6808 32.4702 48.5538 32.2997C48.4268 32.1292 48.3584 31.9211 48.3486 31.6765H49.0522C49.062 31.8044 49.1054 31.911 49.1792 31.9972C49.2541 32.0825 49.3518 32.1454 49.4713 32.188C49.5918 32.2296 49.7263 32.251 49.8751 32.251C50.0304 32.251 50.1672 32.2286 50.2855 32.185C50.4027 32.1413 50.495 32.0805 50.5613 32.0013C50.6286 31.9231 50.6623 31.8308 50.6633 31.7252C50.6623 31.6288 50.6318 31.5486 50.5732 31.4857C50.5135 31.4228 50.431 31.37 50.3256 31.3273C50.2193 31.2847 50.0955 31.2461 49.9544 31.2127L49.5049 31.1051C49.1803 31.0269 48.923 30.9082 48.7351 30.7488C48.5463 30.5895 48.4528 30.3784 48.4528 30.1135C48.4528 29.8963 48.5158 29.7055 48.6429 29.542C48.7688 29.3786 48.9414 29.2518 49.1597 29.1614C49.379 29.0701 49.6265 29.0254 49.9022 29.0254C50.1824 29.0254 50.4277 29.0701 50.6394 29.1614C50.8511 29.2518 51.0173 29.3776 51.1377 29.538C51.2583 29.6983 51.3212 29.882 51.3245 30.0901H50.6362Z" fill="white"/>
</g>
<defs>
<clipPath id="clip0_118_7632">
<rect width="46.3789" height="8.93401" fill="white" transform="translate(5 24)"/>
</clipPath>
</defs>
</svg>
