<svg width="50" height="55" viewBox="0 0 50 55" fill="none" xmlns="http://www.w3.org/2000/svg">
<path d="M23.8627 12.5482C24.5515 12.1145 25.4486 12.1125 26.1368 12.5482C29.5989 14.7001 33.0621 16.8486 36.5236 19.0018C37.1747 19.4052 37.6102 20.2022 37.6035 21.0274V33.9741C37.6084 34.8335 37.1299 35.6496 36.443 36.0438C32.9922 38.1839 29.5433 40.3265 26.0931 42.4666C25.3901 42.9087 24.475 42.8747 23.794 42.3963C22.7595 41.7366 21.7231 41.0801 20.6885 40.4211C20.4771 40.2824 20.2388 40.1721 20.0895 39.9466C20.2215 39.7509 20.4574 39.7266 20.6491 39.6411C21.081 39.4901 21.4776 39.2476 21.8743 39.0124C21.9746 38.9368 22.0971 38.9658 22.1933 39.0334C23.0779 39.5913 23.9547 40.1655 24.8424 40.7181C25.0317 40.8383 25.2234 40.6787 25.3853 40.5794C28.7715 38.4742 32.1619 36.3769 35.5475 34.2711C35.673 34.2047 35.7423 34.0582 35.7321 33.9071C35.7345 29.6362 35.7327 25.3647 35.7333 21.0938C35.7477 20.9223 35.6575 20.7646 35.5165 20.6944C32.0777 18.5642 28.6407 16.4307 25.2026 14.2999C25.143 14.2549 25.0724 14.2307 25.0001 14.2306C24.9279 14.2305 24.8572 14.2544 24.7975 14.2993C21.3594 16.4307 17.923 18.5662 14.4848 20.6963C14.3443 20.7666 14.2501 20.9217 14.2668 21.0938C14.2674 25.3647 14.2668 29.6362 14.2668 33.9077C14.2608 33.9815 14.2755 34.0555 14.309 34.1197C14.3424 34.184 14.3929 34.2355 14.4538 34.2672C15.3712 34.8395 16.2899 35.4078 17.208 35.9781C17.7252 36.2843 18.3603 36.4663 18.9301 36.2317C19.433 36.0333 19.7855 35.4688 19.7759 34.8815C19.7806 30.6356 19.7735 26.389 19.7794 22.1438C19.7669 21.9553 19.9294 21.7996 20.096 21.8173C20.5369 21.814 20.9783 21.8108 21.4191 21.8186C21.6031 21.814 21.7298 22.017 21.707 22.2069C21.7052 26.4797 21.7118 30.7526 21.704 35.0253C21.7052 36.1641 21.2799 37.4032 20.3224 37.9603C19.1427 38.6326 17.6847 38.49 16.5192 37.8454C15.5103 37.2915 14.5475 36.6378 13.5565 36.0444C12.8679 35.6523 12.3917 34.8329 12.3966 33.9742V21.0274C12.3893 20.1851 12.8422 19.3736 13.5135 18.9761C16.9636 16.8343 20.4132 14.6909 23.8627 12.5482Z" fill="#8CC84B"/>
<path d="M26.8726 21.5163C28.3774 21.4098 29.9883 21.4532 31.3424 22.2686C32.3907 22.8935 32.972 24.2049 32.9905 25.4861C32.9612 25.659 32.797 25.7543 32.647 25.7424C32.2104 25.7418 31.7737 25.7489 31.3371 25.7392C31.1519 25.747 31.0443 25.5592 31.021 25.3791C30.8956 24.766 30.5917 24.1589 30.0671 23.8632C29.2619 23.4198 28.3283 23.4421 27.4503 23.4513C26.8093 23.4888 26.1201 23.5498 25.577 23.9644C25.1601 24.2785 25.0335 24.9125 25.1823 25.4231C25.3226 25.7898 25.7073 25.9081 26.0221 26.0171C27.8355 26.5388 29.7572 26.4869 31.536 27.1735C32.2724 27.4534 32.9928 27.9975 33.2449 28.8457C33.5747 29.9824 33.4301 31.3412 32.6949 32.2538C32.0986 33.0048 31.2302 33.4136 30.364 33.6356C29.2118 33.9182 28.016 33.9254 26.8458 33.7999C25.7455 33.6619 24.6005 33.3439 23.751 32.5193C23.0247 31.8255 22.6699 30.7445 22.7051 29.7012C22.7136 29.5251 22.873 29.4022 23.0265 29.4167C23.4661 29.4128 23.9058 29.4114 24.3454 29.4173C24.521 29.4035 24.6512 29.5704 24.6602 29.7525C24.7414 30.3366 24.9409 30.9496 25.4039 31.2959C26.2974 31.93 27.4186 31.8866 28.4418 31.9043C29.2894 31.8629 30.241 31.8504 30.9327 31.2341C31.2976 30.8826 31.4058 30.2946 31.3071 29.7886C31.2003 29.3615 30.7941 29.1625 30.4453 29.0323C28.6551 28.4094 26.712 28.6354 24.9391 27.931C24.2194 27.6512 23.5234 27.1222 23.2469 26.3089C22.8611 25.1577 23.0379 23.7338 23.8502 22.852C24.6422 21.9749 25.7856 21.6371 26.8726 21.5162V21.5163Z" fill="#8CC84B"/>
</svg>
