<svg width="50" height="55" viewBox="0 0 50 55" fill="none" xmlns="http://www.w3.org/2000/svg">
<path fill-rule="evenodd" clip-rule="evenodd" d="M25 35.2423C32.6706 35.2423 38.8889 31.7758 38.8889 27.4999C38.8889 23.2241 32.6706 19.7576 25 19.7576C17.3295 19.7576 11.1111 23.2241 11.1111 27.4999C11.1111 31.7758 17.3295 35.2423 25 35.2423Z" fill="#6E81B6"/>
<path fill-rule="evenodd" clip-rule="evenodd" d="M27.8147 30.0023L28.5036 26.1021C28.6592 25.2218 28.5298 24.5652 28.1196 24.1503C27.722 23.7488 27.0472 23.5536 26.0567 23.5536H24.8636L25.2048 21.6212C25.2112 21.5852 25.2103 21.5481 25.2021 21.5126C25.194 21.4771 25.1787 21.444 25.1576 21.4157C25.1364 21.3874 25.1098 21.3646 25.0797 21.3489C25.0495 21.3333 25.0166 21.3252 24.9833 21.3252H23.3366C23.2284 21.3252 23.1356 21.4096 23.1149 21.5264L22.3831 25.667C22.3166 25.2011 22.1527 24.8006 21.8904 24.4701C21.4074 23.8619 20.6434 23.5536 19.6194 23.5536H16.4277C16.3196 23.5536 16.2267 23.638 16.2061 23.7546L14.7253 32.1359C14.7123 32.2089 14.7296 32.2839 14.7726 32.3412C14.8155 32.3986 14.8793 32.4317 14.947 32.4317H16.6066C16.7148 32.4317 16.8076 32.3473 16.8283 32.2303L17.1865 30.2032H18.4219C19.0702 30.2032 19.615 30.1259 20.0403 29.9737C20.4751 29.8182 20.8753 29.5543 21.228 29.1911C21.513 28.9031 21.7485 28.5806 21.9297 28.2327L21.6339 29.9072C21.621 29.9802 21.6383 30.0555 21.6813 30.1124C21.7241 30.1699 21.7881 30.203 21.8556 30.203H23.5023C23.6105 30.203 23.7034 30.1185 23.724 30.002L24.5367 25.4013H25.6667C26.1482 25.4013 26.2893 25.5068 26.3277 25.5521C26.3625 25.5935 26.4347 25.7392 26.3536 26.1987L25.6986 29.907C25.6923 29.943 25.6933 29.98 25.7016 30.0155C25.7098 30.051 25.725 30.084 25.7462 30.1122C25.7674 30.1405 25.794 30.1633 25.8241 30.1789C25.8541 30.1946 25.887 30.2027 25.9203 30.2028H27.5932C27.6456 30.2029 27.6963 30.183 27.7367 30.1464C27.7772 30.1098 27.8047 30.0589 27.8147 30.0023ZM20.1802 26.7797C20.0767 27.3644 19.8819 27.7814 19.6008 28.0191C19.3153 28.2613 18.8586 28.384 18.2434 28.384H17.5078L18.0397 25.3731H18.9908C19.6894 25.3731 19.9709 25.5373 20.084 25.6749C20.2406 25.866 20.2739 26.2482 20.1802 26.7797ZM34.7511 24.4701C34.2683 23.8619 33.5043 23.5536 32.4803 23.5536H29.2886C29.1803 23.5536 29.0876 23.638 29.0669 23.7546L27.5863 32.1359C27.5732 32.2089 27.5905 32.2839 27.6335 32.3412C27.6765 32.3984 27.7405 32.4317 27.8077 32.4317H29.4675C29.5758 32.4317 29.6685 32.3473 29.6892 32.2303L30.0474 30.2032H31.283C31.9314 30.2032 32.4758 30.1259 32.9012 29.9737C33.3362 29.8182 33.7364 29.5543 34.0889 29.1911C34.3831 28.8939 34.6252 28.5597 34.8086 28.1989C34.992 27.8381 35.1235 27.4357 35.2002 27.0027C35.3888 25.9347 35.2378 25.0827 34.7511 24.4701ZM33.1353 26.7797C33.0317 27.3644 32.8369 27.7814 32.556 28.0191C32.2704 28.2613 31.8137 28.384 31.1987 28.384H30.4629L30.9946 25.3731H31.9459C32.6446 25.3731 32.926 25.5373 33.0392 25.6749C33.1956 25.866 33.229 26.2482 33.1353 26.7797Z" fill="white"/>
<path fill-rule="evenodd" clip-rule="evenodd" d="M18.9437 25.1246C19.5741 25.1246 19.9945 25.2527 20.2046 25.5087C20.4146 25.7648 20.4646 26.2045 20.3548 26.8272C20.2399 27.4759 20.0189 27.9388 19.6914 28.2163C19.3639 28.4938 18.8654 28.6323 18.1963 28.6323H17.1866L17.8063 25.1246H18.9437ZM14.8997 32.1833H16.5593L16.9532 29.9551H18.3748C19.0021 29.9551 19.5182 29.8825 19.9233 29.7375C20.3284 29.5924 20.6967 29.3495 21.0281 29.0083C21.3062 28.7273 21.5312 28.4169 21.7035 28.0777C21.8757 27.7386 21.998 27.3645 22.0703 26.9553C22.246 25.9617 22.1135 25.1878 21.6732 24.6336C21.233 24.0792 20.5325 23.8021 19.5723 23.8021H16.3806L14.8997 32.1833ZM23.2893 21.5737H24.936L24.5424 23.8021H26.0096C26.9323 23.8021 27.5693 23.9791 27.9196 24.3332C28.27 24.6874 28.3749 25.2614 28.2349 26.0548L27.5459 29.9551H25.873L26.528 26.2466C26.6024 25.8246 26.5752 25.537 26.4457 25.3835C26.3162 25.2301 26.0406 25.1533 25.6194 25.1533H24.3034L23.4551 29.9551H21.8083L23.2893 21.5737ZM31.8988 25.1246C32.5293 25.1246 32.9495 25.2527 33.1598 25.5087C33.3697 25.7648 33.4196 26.2045 33.3097 26.8272C33.1952 27.4759 32.9742 27.9388 32.6465 28.2163C32.3192 28.4938 31.8205 28.6323 31.1518 28.6323H30.1421L30.7616 25.1246H31.8988ZM27.8545 32.1833H29.5143L29.908 29.9551H31.3296C31.9571 29.9551 32.4732 29.8825 32.8783 29.7375C33.2834 29.5924 33.6517 29.3495 33.983 29.0083C34.2612 28.7273 34.4862 28.4169 34.6583 28.0777C34.8305 27.7386 34.9529 27.3645 35.0255 26.9553C35.201 25.9617 35.0685 25.1878 34.6283 24.6336C34.1878 24.0792 33.4874 23.8021 32.5273 23.8021H29.3356L27.8545 32.1833Z" fill="black"/>
</svg>
