<svg width="54" height="55" viewBox="0 0 54 55" fill="none" xmlns="http://www.w3.org/2000/svg">
<path d="M27.2387 12.3018C19.7639 12.3018 20.2306 15.6656 20.2306 15.6656L20.2389 19.1507H27.372V20.197H17.4057C17.4057 20.197 12.6226 19.634 12.6226 27.4607C12.6226 35.2876 16.7974 35.01 16.7974 35.01H19.289V31.378C19.289 31.378 19.1546 27.0457 23.3972 27.0457H30.4719C30.4719 27.0457 34.4468 27.1123 34.4468 23.0592V16.3575C34.4468 16.3575 35.0504 12.3018 27.2387 12.3018ZM23.3055 14.6454C23.4741 14.6452 23.641 14.6796 23.7968 14.7464C23.9525 14.8133 24.094 14.9114 24.2132 15.0351C24.3324 15.1588 24.4269 15.3056 24.4914 15.4673C24.5558 15.6289 24.5889 15.8021 24.5887 15.9771C24.5889 16.152 24.5558 16.3252 24.4914 16.4868C24.4269 16.6485 24.3324 16.7953 24.2132 16.919C24.094 17.0427 23.9525 17.1408 23.7968 17.2077C23.641 17.2745 23.4741 17.3089 23.3055 17.3087C23.1369 17.3089 22.97 17.2745 22.8143 17.2077C22.6585 17.1408 22.517 17.0427 22.3978 16.919C22.2786 16.7953 22.1841 16.6485 22.1196 16.4868C22.0552 16.3252 22.0221 16.152 22.0223 15.9771C22.0221 15.8021 22.0552 15.6289 22.1196 15.4673C22.1841 15.3056 22.2786 15.1588 22.3978 15.0351C22.517 14.9114 22.6585 14.8133 22.8143 14.7464C22.97 14.6796 23.1369 14.6452 23.3055 14.6454Z" fill="url(#paint0_linear_79_12043)"/>
<path d="M27.4509 42.6985C34.9258 42.6985 34.459 39.3347 34.459 39.3347L34.4507 35.8497H27.3175V34.8034H37.2838C37.2838 34.8034 42.0669 35.3664 42.0669 27.5394C42.0669 19.7127 37.8921 19.9902 37.8921 19.9902H35.4005V23.6221C35.4005 23.6221 35.5349 27.9545 31.2923 27.9545H24.2176C24.2176 27.9545 20.2427 27.8879 20.2427 31.9411V38.6429C20.2427 38.6429 19.6392 42.6985 27.4508 42.6985H27.4509ZM31.3841 40.3551C31.2156 40.3553 31.0486 40.321 30.8929 40.2541C30.7371 40.1872 30.5956 40.0891 30.4764 39.9655C30.3572 39.8418 30.2627 39.6949 30.1982 39.5333C30.1338 39.3716 30.1007 39.1984 30.1009 39.0235C30.1007 38.8485 30.1338 38.6753 30.1982 38.5136C30.2626 38.352 30.3572 38.2051 30.4763 38.0814C30.5955 37.9577 30.7371 37.8596 30.8928 37.7928C31.0486 37.7259 31.2155 37.6915 31.3841 37.6917C31.5527 37.6915 31.7196 37.7259 31.8754 37.7927C32.0311 37.8596 32.1726 37.9577 32.2918 38.0814C32.411 38.2051 32.5055 38.3519 32.57 38.5136C32.6344 38.6752 32.6675 38.8484 32.6674 39.0234C32.6675 39.1983 32.6344 39.3715 32.57 39.5332C32.5055 39.6948 32.411 39.8417 32.2918 39.9653C32.1726 40.089 32.0311 40.1871 31.8754 40.254C31.7196 40.3208 31.5527 40.3552 31.3841 40.355V40.3551Z" fill="url(#paint1_linear_79_12043)"/>
<defs>
<linearGradient id="paint0_linear_79_12043" x1="15.4522" y1="15.0358" x2="30.5786" y2="29.4667" gradientUnits="userSpaceOnUse">
<stop stop-color="#387EB8"/>
<stop offset="1" stop-color="#366994"/>
</linearGradient>
<linearGradient id="paint1_linear_79_12043" x1="24.4085" y1="24.6624" x2="40.6249" y2="39.4348" gradientUnits="userSpaceOnUse">
<stop stop-color="#FFE052"/>
<stop offset="1" stop-color="#FFC331"/>
</linearGradient>
</defs>
</svg>
