<svg width="56" height="55" viewBox="0 0 56 55" fill="none" xmlns="http://www.w3.org/2000/svg">
<path d="M39.2336 29.2156C38.1482 29.2212 37.2049 29.4779 36.415 29.8574C36.1252 29.2937 35.8354 28.7914 35.7842 28.4231C35.7274 27.9933 35.6592 27.731 35.7274 27.2175C35.7956 26.7041 36.1025 25.973 36.0968 25.9171C36.0911 25.8613 36.0286 25.599 35.4035 25.5934C34.7784 25.5879 34.2386 25.7106 34.1761 25.8725C34.1136 26.0344 33.9942 26.4027 33.9147 26.7822C33.8067 27.3403 32.6645 29.3328 32.011 30.3764C31.8008 29.969 31.6189 29.6118 31.5791 29.3272C31.5223 28.8974 31.4541 28.6351 31.5223 28.1217C31.5905 27.6082 31.8974 26.8771 31.8917 26.8213C31.886 26.7655 31.8235 26.5032 31.1984 26.4976C30.5733 26.492 30.0335 26.6148 29.971 26.7766C29.9085 26.9385 29.8403 27.318 29.7096 27.6864C29.5789 28.0547 28.0616 31.381 27.6639 32.2405C27.4593 32.6814 27.2831 33.033 27.1581 33.273C27.1581 33.273 27.1524 33.2898 27.1354 33.3177C27.0274 33.5242 26.9649 33.6358 26.9649 33.6358C26.9649 33.6358 26.9649 33.6358 26.9649 33.6414C26.8797 33.7921 26.7887 33.9316 26.7433 33.9316C26.7092 33.9316 26.6467 33.5298 26.7546 32.9828C26.9819 31.8275 27.5218 30.0304 27.5161 29.969C27.5161 29.9355 27.6184 29.623 27.1638 29.4611C26.7205 29.2993 26.5614 29.5672 26.5217 29.5672C26.4819 29.5672 26.4535 29.6621 26.4535 29.6621C26.4535 29.6621 26.9479 27.6417 25.5102 27.6417C24.6123 27.6417 23.3735 28.6072 22.7598 29.4779C22.3734 29.6844 21.5494 30.1253 20.6686 30.5997C20.3333 30.7839 19.9867 30.968 19.6628 31.141C19.6401 31.1187 19.6173 31.0908 19.5946 31.0685C17.8557 29.2435 14.6394 27.9542 14.7758 25.5041C14.8269 24.6112 15.1395 22.2671 20.9527 19.4208C25.7375 17.1046 29.5448 17.7464 30.204 19.1696C31.1473 21.2011 28.1639 24.9739 23.2201 25.5209C21.3335 25.7274 20.3447 25.013 20.0947 24.7451C19.8333 24.4661 19.7935 24.4493 19.6969 24.5051C19.5378 24.5888 19.6401 24.84 19.6969 24.9851C19.8446 25.3646 20.4527 26.0343 21.4812 26.3636C22.3904 26.6539 24.601 26.8157 27.2774 25.7999C30.2722 24.6614 32.6134 21.4969 31.9258 18.8459C31.2382 16.1558 26.6921 15.2684 22.3904 16.7697C19.8333 17.6627 17.0602 19.0691 15.0656 20.8997C12.696 23.0764 12.3209 24.9684 12.4744 25.7609C13.0256 28.5737 16.975 30.4043 18.5547 31.7605C18.4751 31.8052 18.4013 31.8443 18.3388 31.8778C17.5489 32.2628 14.5371 33.8088 13.787 35.4441C12.9346 37.297 13.9234 38.6253 14.5769 38.8039C16.6056 39.3564 18.6911 38.363 19.8106 36.7221C20.93 35.0813 20.7936 32.9493 20.2765 31.9726C20.2708 31.9615 20.2652 31.9503 20.2538 31.9391C20.4584 31.8219 20.6686 31.6992 20.8732 31.582C21.2767 31.3475 21.6744 31.1299 22.0154 30.9513C21.8222 31.4703 21.6801 32.0898 21.6119 32.9828C21.5267 34.0321 21.9642 35.3938 22.5382 35.9296C22.7939 36.164 23.0951 36.1696 23.2883 36.1696C23.9588 36.1696 24.26 35.6227 24.5953 34.9753C25.0044 34.1827 25.3738 33.2619 25.3738 33.2619C25.3738 33.2619 24.9135 35.751 26.1637 35.751C26.6183 35.751 27.0786 35.1706 27.2831 34.8748C27.2831 34.8804 27.2831 34.8804 27.2831 34.8804C27.2831 34.8804 27.2945 34.8636 27.3172 34.8246C27.3627 34.752 27.3911 34.7074 27.3911 34.7074C27.3911 34.7074 27.3911 34.7018 27.3911 34.6962C27.5729 34.3837 27.9821 33.6749 28.5901 32.4973C29.3743 30.9792 30.1301 29.0816 30.1301 29.0816C30.1301 29.0816 30.1983 29.5449 30.4313 30.315C30.5676 30.7671 30.8518 31.2638 31.0791 31.7438C30.8972 31.995 30.7836 32.1345 30.7836 32.1345C30.7836 32.1345 30.7836 32.1345 30.7893 32.1401C30.6415 32.3298 30.4824 32.5363 30.3062 32.7372C29.6868 33.4628 28.9481 34.2944 28.8458 34.5344C28.7265 34.819 28.7549 35.0255 28.9822 35.1929C29.147 35.3157 29.4425 35.3324 29.7437 35.3157C30.3006 35.2766 30.6927 35.1427 30.8859 35.059C31.187 34.9529 31.5394 34.7911 31.869 34.5511C32.477 34.1102 32.8464 33.4795 32.8123 32.6479C32.7952 32.1903 32.6418 31.7326 32.4543 31.3029C32.5111 31.2248 32.5622 31.1466 32.6191 31.0685C33.5794 29.69 34.3238 28.1775 34.3238 28.1775C34.3238 28.1775 34.392 28.6407 34.625 29.4109C34.7386 29.8016 34.9716 30.2257 35.1762 30.6387C34.2727 31.3587 33.7158 32.1959 33.5169 32.7428C33.1589 33.7586 33.4373 34.2162 33.9658 34.3223C34.2045 34.3725 34.5454 34.2609 34.7955 34.1548C35.1137 34.0544 35.4887 33.8814 35.8467 33.6246C36.4548 33.1837 37.0401 32.5698 37.006 31.7382C36.9889 31.3587 36.8867 30.9848 36.7446 30.622C37.5117 30.3095 38.5005 30.1365 39.762 30.2816C42.4669 30.5941 43.0011 32.2517 42.8988 32.9493C42.7965 33.647 42.2283 34.0265 42.0407 34.1437C41.8532 34.2609 41.7907 34.2999 41.8078 34.3837C41.8305 34.5064 41.9214 34.5009 42.0805 34.4785C42.3021 34.4395 43.5012 33.9149 43.5523 32.6312C43.6375 30.9904 42.0464 29.1988 39.2336 29.2156ZM18.3672 36.125C17.4693 37.0849 16.2192 37.4477 15.6793 37.1407C15.0997 36.8114 15.327 35.3938 16.4294 34.3781C17.1 33.7586 17.9637 33.1837 18.5377 32.8321C18.6684 32.754 18.8616 32.6424 19.0945 32.5028C19.1343 32.4805 19.1571 32.4693 19.1571 32.4693C19.2025 32.4414 19.248 32.4135 19.2934 32.3856C19.6969 33.8367 19.3105 35.1148 18.3672 36.125ZM24.9021 31.7605C24.5896 32.5084 23.9361 34.4227 23.5383 34.3167C23.1974 34.2274 22.9871 32.7763 23.4701 31.342C23.7145 30.622 24.2316 29.7625 24.5328 29.4277C25.0215 28.8919 25.5613 28.7133 25.692 28.9309C25.8568 29.2156 25.0953 31.2917 24.9021 31.7605ZM30.2949 34.2944C30.1642 34.3613 30.0392 34.406 29.9823 34.3725C29.9426 34.3502 30.0392 34.2609 30.0392 34.2609C30.0392 34.2609 30.7154 33.5465 30.9825 33.2228C31.1359 33.033 31.3177 32.8098 31.511 32.5586C31.511 32.581 31.511 32.6089 31.511 32.6312C31.511 33.4851 30.6699 34.06 30.2949 34.2944ZM34.4545 33.3623C34.3579 33.2953 34.375 33.0721 34.6989 32.3745C34.8239 32.101 35.1194 31.6433 35.6251 31.2024C35.682 31.381 35.7217 31.554 35.7161 31.7159C35.7104 32.793 34.9262 33.1949 34.4545 33.3623Z" fill="#CD6799"/>
</svg>
