<svg width="54" height="55" viewBox="0 0 54 55" fill="none" xmlns="http://www.w3.org/2000/svg">
<path d="M27.2499 18.3359C23.3239 18.3359 20.8702 20.3725 19.8886 24.4451C21.361 22.4086 23.0787 21.6452 25.0415 22.1541C26.1616 22.4445 26.962 23.2878 27.8482 24.2208C29.2916 25.7408 30.9621 27.4999 34.6112 27.4999C38.5369 27.4999 40.9909 25.4634 41.9722 21.3903C40.5001 23.4269 38.7825 24.1907 36.8193 23.6817C35.6996 23.3913 34.8992 22.5481 34.0129 21.615C32.5696 20.0951 30.8987 18.3359 27.2499 18.3359ZM19.8886 27.4999C15.963 27.4999 13.5089 29.5364 12.5277 33.6095C13.9997 31.573 15.7174 30.8092 17.6806 31.3185C18.8003 31.6093 19.6007 32.4521 20.487 33.3848C21.9303 34.9048 23.6011 36.6643 27.2499 36.6643C31.176 36.6643 33.6296 34.6277 34.6112 30.5547C33.1388 32.5912 31.4212 33.355 29.4584 32.8457C28.3383 32.5557 27.5379 31.712 26.6516 30.7794C25.2083 29.2594 23.5378 27.4999 19.8886 27.4999Z" fill="#06B6D4"/>
</svg>
