<svg width="57" height="55" viewBox="0 0 57 55" fill="none" xmlns="http://www.w3.org/2000/svg">
<path d="M12.5997 12.2222H43.7108V42.7777H12.5997V12.2222Z" fill="#017ACB"/>
<path d="M27.538 23.5373H29.0303V26.0677H24.9956V37.3255L24.8886 37.3541C24.7428 37.3923 22.8227 37.3923 22.4095 37.3493L22.0789 37.3207V26.0677H18.0442V23.5373L19.3227 23.5229C20.0227 23.5134 21.8213 23.5134 23.3185 23.5229C24.8157 23.5325 26.7116 23.5373 27.538 23.5373ZM38.9276 36.1319C38.3345 36.7478 37.6977 37.0915 36.638 37.3732C36.1762 37.4973 36.0984 37.5021 35.0581 37.4973C34.0178 37.4926 33.9352 37.4926 33.4296 37.3637C32.122 37.0342 31.0671 36.3897 30.3477 35.4778C30.1435 35.22 29.8081 34.6853 29.8081 34.6184C29.8081 34.5993 29.8567 34.5564 29.9199 34.5277C29.9831 34.4991 30.1143 34.4179 30.2213 34.3558C30.3282 34.2938 30.5227 34.1792 30.6539 34.1124C30.7852 34.0455 31.1644 33.8259 31.4949 33.6302C31.8255 33.4344 32.1269 33.2769 32.1609 33.2769C32.1949 33.2769 32.2581 33.3437 32.3067 33.4249C32.5984 33.9071 33.2789 34.5229 33.7602 34.733C34.0567 34.8571 34.713 34.9956 35.0289 34.9956C35.3206 34.9956 35.8553 34.8715 36.1421 34.7426C36.4484 34.6041 36.6039 34.4657 36.7887 34.1887C36.9151 33.993 36.9296 33.9405 36.9248 33.5681C36.9248 33.2243 36.9053 33.1289 36.8081 32.9713C36.5359 32.5321 36.1664 32.3029 34.6692 31.6536C33.1234 30.9804 32.4282 30.5794 31.8644 30.0399C31.4463 29.6388 31.3637 29.529 31.1012 29.0277C30.7609 28.3832 30.7171 28.1731 30.7123 27.2135C30.7074 26.5403 30.722 26.3207 30.7949 26.0915C30.897 25.7478 31.2275 25.0841 31.3782 24.917C31.6894 24.559 31.8012 24.4492 32.0199 24.2725C32.681 23.7378 33.7116 23.3845 34.6984 23.3511C34.8102 23.3511 35.1796 23.3702 35.5248 23.394C36.5164 23.4752 37.1921 23.7139 37.8435 24.2248C38.3345 24.6067 39.0783 25.5043 39.0053 25.6236C38.9567 25.6953 37.0171 26.9652 36.8907 27.0034C36.813 27.0273 36.7595 26.9986 36.6526 26.8745C35.9914 26.0963 35.7241 25.9292 35.0824 25.891C34.6255 25.8624 34.3824 25.9149 34.0762 26.1154C33.7553 26.3255 33.5998 26.6453 33.5998 27.0894C33.6046 27.7387 33.8574 28.0442 34.7907 28.4978C35.3935 28.789 35.9088 29.0277 35.9477 29.0277C36.006 29.0277 37.2553 29.6388 37.581 29.8298C39.0977 30.7035 39.7151 31.6011 39.8755 33.1479C39.9921 34.3129 39.6567 35.3775 38.9276 36.1319Z" fill="white"/>
</svg>
