<svg width="25" height="20" viewBox="0 0 25 20" fill="none" xmlns="http://www.w3.org/2000/svg">
<path d="M21.1544 1.57892C19.5617 0.848105 17.8538 0.309675 16.068 0.00129362C16.0355 -0.00465804 16.003 0.0102155 15.9862 0.0399632C15.7666 0.430644 15.5232 0.940319 15.3529 1.34092C13.4321 1.05337 11.5213 1.05337 9.63993 1.34092C9.46951 0.931414 9.21737 0.430644 8.99673 0.0399632C8.97997 0.011208 8.94748 -0.00366551 8.91496 0.00129362C7.13017 0.308689 5.42221 0.84712 3.82849 1.57892C3.8147 1.58487 3.80287 1.59479 3.79502 1.60767C0.555377 6.44763 -0.332097 11.1686 0.103268 15.8311C0.105238 15.8539 0.118043 15.8757 0.135773 15.8896C2.2732 17.4593 4.34366 18.4122 6.37567 19.0438C6.40819 19.0538 6.44265 19.0419 6.46334 19.0151C6.94402 18.3587 7.37249 17.6665 7.73987 16.9387C7.76155 16.8961 7.74086 16.8455 7.69655 16.8286C7.01691 16.5708 6.36976 16.2565 5.74724 15.8995C5.698 15.8708 5.69406 15.8003 5.73936 15.7666C5.87036 15.6685 6.0014 15.5663 6.12648 15.4632C6.14911 15.4444 6.18065 15.4404 6.20726 15.4523C10.2969 17.3195 14.7244 17.3195 18.7658 15.4523C18.7924 15.4394 18.824 15.4434 18.8476 15.4622C18.9727 15.5653 19.1037 15.6685 19.2357 15.7666C19.281 15.8003 19.278 15.8708 19.2288 15.8995C18.6063 16.2634 17.9591 16.5708 17.2785 16.8276C17.2342 16.8445 17.2145 16.8961 17.2362 16.9387C17.6114 17.6655 18.0399 18.3576 18.5117 19.0141C18.5314 19.0419 18.5669 19.0538 18.5994 19.0438C20.6413 18.4122 22.7117 17.4593 24.8491 15.8896C24.8678 15.8757 24.8797 15.8549 24.8816 15.8321C25.4027 10.4418 24.0089 5.75948 21.1869 1.60866C21.18 1.59479 21.1682 1.58487 21.1544 1.57892ZM8.35059 12.9921C7.11933 12.9921 6.1048 11.8617 6.1048 10.4735C6.1048 9.08526 7.09965 7.95487 8.35059 7.95487C9.61135 7.95487 10.6161 9.09519 10.5964 10.4735C10.5964 11.8617 9.6015 12.9921 8.35059 12.9921ZM16.654 12.9921C15.4228 12.9921 14.4083 11.8617 14.4083 10.4735C14.4083 9.08526 15.4031 7.95487 16.654 7.95487C17.9148 7.95487 18.9195 9.09519 18.8998 10.4735C18.8998 11.8617 17.9148 12.9921 16.654 12.9921Z" fill="#DCDCDC"/>
</svg>
