<svg width="25" height="26" viewBox="0 0 25 26" fill="none" xmlns="http://www.w3.org/2000/svg">
<path fill-rule="evenodd" clip-rule="evenodd" d="M12.505 0.854492C5.59004 0.854492 0 6.48574 0 13.4524C0 19.0212 3.58173 23.735 8.55054 25.4034C9.17177 25.5288 9.39932 25.1323 9.39932 24.7988C9.39932 24.5068 9.37885 23.5057 9.37885 22.4626C5.90027 23.2136 5.17589 20.9609 5.17589 20.9609C4.61686 19.5008 3.78855 19.1256 3.78855 19.1256C2.65002 18.3539 3.87148 18.3539 3.87148 18.3539C5.13442 18.4373 5.79712 19.647 5.79712 19.647C6.91492 21.5657 8.71615 21.0236 9.44079 20.6898C9.5442 19.8763 9.87568 19.3132 10.2276 19.0004C7.45322 18.7084 4.53418 17.6238 4.53418 12.7848C4.53418 11.4082 5.03075 10.282 5.81759 9.40606C5.69345 9.09327 5.25856 7.79987 5.94199 6.06877C5.94199 6.06877 6.99785 5.73499 9.37859 7.36191C10.3979 7.08615 11.449 6.94587 12.505 6.94469C13.5608 6.94469 14.6372 7.09085 15.6311 7.36191C18.0121 5.73499 19.0679 6.06877 19.0679 6.06877C19.7514 7.79987 19.3162 9.09327 19.1921 9.40606C19.9996 10.282 20.4757 11.4082 20.4757 12.7848C20.4757 17.6238 17.5567 18.6874 14.7616 19.0004C15.2172 19.3967 15.6103 20.1474 15.6103 21.3364C15.6103 23.0257 15.5899 24.3816 15.5899 24.7986C15.5899 25.1323 15.8177 25.5288 16.4386 25.4037C21.4075 23.7348 24.9892 19.0212 24.9892 13.4524C25.0097 6.48574 19.3991 0.854492 12.505 0.854492Z" fill="#DCDCDC"/>
</svg>
