<svg width="25" height="25" viewBox="0 0 25 25" fill="none" xmlns="http://www.w3.org/2000/svg">
<path d="M22.4476 0.618988H1.8749C0.889409 0.618988 0.0925293 1.39701 0.0925293 2.35892V23.0165C0.0925293 23.9784 0.889409 24.7611 1.8749 24.7611H22.4476C23.4331 24.7611 24.2347 23.9784 24.2347 23.0212V2.35892C24.2347 1.39701 23.4331 0.618988 22.4476 0.618988ZM7.25501 21.1917H3.67141V9.66758H7.25501V21.1917ZM5.46321 8.09739C4.31269 8.09739 3.38378 7.16849 3.38378 6.02268C3.38378 4.87687 4.31269 3.94796 5.46321 3.94796C6.60902 3.94796 7.53793 4.87687 7.53793 6.02268C7.53793 7.16377 6.60902 8.09739 5.46321 8.09739ZM20.6652 21.1917H17.0863V15.5899C17.0863 14.2555 17.0628 12.5345 15.2238 12.5345C13.3613 12.5345 13.0784 13.9915 13.0784 15.4956V21.1917H9.50419V9.66758H12.9369V11.2425H12.9841C13.4603 10.3371 14.6297 9.37995 16.3696 9.37995C19.9957 9.37995 20.6652 11.7659 20.6652 14.8685V21.1917Z" fill="#DCDCDC"/>
</svg>
