<svg width="25" height="25" viewBox="0 0 25 25" fill="none" xmlns="http://www.w3.org/2000/svg">
<path fill-rule="evenodd" clip-rule="evenodd" d="M9.16612 0C7.78416 0.00101937 6.66571 1.12029 6.66674 2.49949C6.66571 3.8787 7.78518 4.99796 9.16714 4.99898H11.6676V2.50051C11.6686 1.1213 10.5491 0.00203874 9.16612 0C9.16714 0 9.16714 0 9.16612 0V0ZM9.16612 6.66667H2.50041C1.11845 6.66769 -0.00101862 7.78695 2.79138e-06 9.16616C-0.00204003 10.5454 1.11742 11.6646 2.49939 11.6667H9.16612C10.5481 11.6656 11.6676 10.5464 11.6665 9.16718C11.6676 7.78695 10.5481 6.66769 9.16612 6.66667Z" fill="white"/>
<path fill-rule="evenodd" clip-rule="evenodd" d="M25.0003 9.16616C25.0013 7.78695 23.8818 6.66769 22.4999 6.66667C21.1179 6.66769 19.9984 7.78695 19.9995 9.16616V11.6667H22.4999C23.8818 11.6656 25.0013 10.5464 25.0003 9.16616ZM18.3335 9.16616V2.49949C18.3346 1.1213 17.2161 0.00203874 15.8342 0C14.4522 0.00101937 13.3327 1.12029 13.3337 2.49949V9.16616C13.3317 10.5454 14.4512 11.6646 15.8331 11.6667C17.2151 11.6656 18.3346 10.5464 18.3335 9.16616Z" fill="white"/>
<path fill-rule="evenodd" clip-rule="evenodd" d="M15.8332 25C17.2151 24.9989 18.3346 23.8797 18.3336 22.5005C18.3346 21.1213 17.2151 20.002 15.8332 20.001H13.3328V22.5005C13.3317 23.8787 14.4512 24.9979 15.8332 25ZM15.8332 18.3323H22.4999C23.8819 18.3313 25.0013 17.212 25.0003 15.8328C25.0024 14.4536 23.8829 13.3343 22.5009 13.3323H15.8342C14.4522 13.3333 13.3328 14.4526 13.3338 15.8318C13.3328 17.212 14.4512 18.3313 15.8332 18.3323Z" fill="white"/>
<path fill-rule="evenodd" clip-rule="evenodd" d="M0.000244839 15.8327C-0.00077657 17.212 1.11869 18.3312 2.50065 18.3322C3.88262 18.3312 5.00208 17.212 5.00106 15.8327V13.3333H2.50065C1.11869 13.3343 -0.00077657 14.4535 0.000244839 15.8327ZM6.66698 15.8327V22.4994C6.66494 23.8786 7.7844 24.9979 9.16637 24.9999C10.5483 24.9989 11.6678 23.8796 11.6668 22.5004V15.8348C11.6688 14.4556 10.5494 13.3363 9.16739 13.3343C7.7844 13.3343 6.66596 14.4535 6.66698 15.8327C6.66698 15.8338 6.66698 15.8327 6.66698 15.8327Z" fill="white"/>
</svg>
