<svg width="26" height="25" viewBox="0 0 26 25" fill="none" xmlns="http://www.w3.org/2000/svg">
<path d="M0.989258 24.9892L2.74579 18.5722C1.66188 16.6939 1.09234 14.5646 1.09338 12.3811C1.0965 5.5549 6.6514 0 13.4766 0C16.7887 0.00104122 19.8978 1.29111 22.2364 3.63177C24.5739 5.97243 25.8608 9.08359 25.8598 12.3926C25.8567 19.2199 20.3018 24.7748 13.4766 24.7748C11.4046 24.7737 9.36274 24.2541 7.55414 23.2671L0.989258 24.9892ZM7.85818 21.0253C9.60326 22.0613 11.2692 22.6819 13.4724 22.6829C19.145 22.6829 23.7659 18.0662 23.769 12.3905C23.7711 6.70336 19.1721 2.09285 13.4808 2.09077C7.80403 2.09077 3.18623 6.70753 3.18415 12.3822C3.1831 14.6989 3.86198 16.4335 5.00211 18.2484L3.96194 22.0468L7.85818 21.0253ZM19.7145 15.3361C19.6375 15.207 19.4313 15.1299 19.121 14.9748C18.8118 14.8197 17.2906 14.071 17.0063 13.9679C16.7231 13.8649 16.5169 13.8128 16.3097 14.1231C16.1036 14.4323 15.5101 15.1299 15.33 15.3361C15.1498 15.5423 14.9687 15.5683 14.6594 15.4132C14.3502 15.258 13.3527 14.9321 12.1709 13.8774C11.2515 13.0569 10.6299 12.0438 10.4498 11.7335C10.2696 11.4242 10.431 11.2566 10.5851 11.1025C10.7246 10.964 10.8944 10.7412 11.0495 10.56C11.2067 10.3809 11.2578 10.2518 11.3619 10.0446C11.465 9.83847 11.4139 9.6573 11.3358 9.50216C11.2578 9.34806 10.6393 7.82476 10.3821 7.20523C10.1301 6.60237 9.87502 6.68358 9.68551 6.67421L9.09202 6.6638C8.88586 6.6638 8.55059 6.74085 8.26737 7.05113C7.98416 7.36141 7.18451 8.10901 7.18451 9.63231C7.18451 11.1556 8.2934 12.6269 8.4475 12.833C8.60265 13.0392 10.6289 16.1649 13.7327 17.505C14.471 17.8236 15.0478 18.0141 15.4966 18.1568C16.2379 18.3921 16.9126 18.3588 17.4457 18.2796C18.0403 18.1911 19.2762 17.531 19.5344 16.8084C19.7926 16.0847 19.7926 15.4652 19.7145 15.3361Z" fill="#DCDCDC"/>
</svg>
