<svg width="25" height="18" viewBox="0 0 25 18" fill="none" xmlns="http://www.w3.org/2000/svg">
<path d="M24.7403 3.79231C24.7403 3.79231 24.4963 2.06942 23.7447 1.31291C22.7929 0.317246 21.7289 0.312365 21.2409 0.253797C17.7463 -1.39638e-07 12.4995 0 12.4995 0H12.4897C12.4897 0 7.24298 -1.39638e-07 3.74839 0.253797C3.26032 0.312365 2.19632 0.317246 1.24458 1.31291C0.492952 2.06942 0.253797 3.79231 0.253797 3.79231C0.253797 3.79231 0 5.81781 0 7.83842V9.73214C0 11.7528 0.248916 13.7782 0.248916 13.7782C0.248916 13.7782 0.492952 15.5011 1.2397 16.2577C2.19144 17.2533 3.4409 17.2191 3.9973 17.3265C5.99839 17.5169 12.4946 17.5754 12.4946 17.5754C12.4946 17.5754 17.7463 17.5657 21.2409 17.3168C21.7289 17.2582 22.7929 17.2533 23.7447 16.2577C24.4963 15.5011 24.7403 13.7782 24.7403 13.7782C24.7403 13.7782 24.9892 11.7576 24.9892 9.73214V7.83842C24.9892 5.81781 24.7403 3.79231 24.7403 3.79231ZM9.91273 12.031V5.00761L16.6627 8.53148L9.91273 12.031Z" fill="#DCDCDC"/>
</svg>
